<?xml version="1.0" encoding="UTF-8"?>
<svg version="1.1" xmlns="http://www.w3.org/2000/svg" width="525" height="242">
<path d="M0 0 C173.25 0 346.5 0 525 0 C525 79.86 525 159.72 525 242 C351.75 242 178.5 242 0 242 C0 162.14 0 82.28 0 0 Z " fill="#FDFDFD" transform="translate(0,0)"/>
<path d="M0 0 C3.15078716 1.39185258 5.77080274 3.25769704 8.5144043 5.32519531 C30.8759097 22.07194658 56.49903989 28.24564927 84 30 C84.0511043 37.45236247 84.0859018 44.904679 84.10986328 52.35717773 C84.11986252 54.88746835 84.13346629 57.41774759 84.15087891 59.94799805 C84.17539622 63.60468369 84.18654424 67.26121532 84.1953125 70.91796875 C84.20563507 72.03205612 84.21595764 73.14614349 84.22659302 74.29399109 C84.22813495 85.31929162 82.55597995 95.93131037 79.6875 106.5625 C79.4709375 107.37187012 79.254375 108.18124023 79.03125 109.01513672 C77.21656661 115.593364 74.97271424 121.84761039 72 128 C71.63390625 128.76054687 71.2678125 129.52109375 70.890625 130.3046875 C59.39233323 152.43496138 39.703284 168.92011326 19 182 C18.2589502 182.47630859 17.51790039 182.95261719 16.75439453 183.44335938 C14.4742308 184.90089279 12.1781637 186.32914774 9.875 187.75 C9.16448486 188.20503906 8.45396973 188.66007813 7.72192383 189.12890625 C2.70499799 192.15165654 2.70499799 192.15165654 -0.6875 191.421875 C-1.450625 190.95265625 -2.21375 190.4834375 -3 190 C-4.17175781 189.42765625 -4.17175781 189.42765625 -5.3671875 188.84375 C-17.81959582 182.17143152 -29.32386262 174.25156077 -40 165 C-40.84046875 164.28199219 -41.6809375 163.56398437 -42.546875 162.82421875 C-66.93561205 141.50300918 -79.42300805 114.34476425 -81.80151367 82.24291992 C-82.33691778 72.57732636 -82.1001666 62.86355193 -82.0625 53.1875 C-82.05747512 50.93424579 -82.05291396 48.68099049 -82.04882812 46.42773438 C-82.03790047 40.95179894 -82.02124068 35.47590464 -82 30 C-81.34188324 29.91599442 -80.68376648 29.83198883 -80.00570679 29.74543762 C-76.99054243 29.35949433 -73.97574086 28.97078401 -70.9609375 28.58203125 C-69.92573975 28.44994263 -68.89054199 28.317854 -67.82397461 28.1817627 C-43.82331252 25.0779822 -17.68295477 17.68295477 0 0 Z " fill="#20427E" transform="translate(127,26)"/>
<path d="M0 0 C21.98887088 17.09332408 37.24125044 41.0938952 42.18066406 68.640625 C42.36371094 69.53007813 42.54675781 70.41953125 42.73535156 71.3359375 C46.42681277 98.73046541 40.41765685 127.67375421 24.27832031 150.30859375 C22.31244907 152.819459 20.27795742 155.23869686 18.18066406 157.640625 C17.4575 158.48496094 16.73433594 159.32929688 15.98925781 160.19921875 C2.72201289 175.35848816 -13.56361989 186.45412945 -32.81933594 192.640625 C-33.44582031 192.84800293 -34.07230469 193.05538086 -34.71777344 193.26904297 C-45.25402312 196.61451381 -55.79024618 197.00688642 -66.75683594 197.015625 C-68.07232422 197.01739746 -69.3878125 197.01916992 -70.74316406 197.02099609 C-100.4566275 196.67838013 -125.71585672 183.37899471 -146.37646484 162.56958008 C-160.0965639 148.24099978 -168.26504455 130.85066924 -172.81933594 111.640625 C-173.08532593 110.5731604 -173.08532593 110.5731604 -173.35668945 109.48413086 C-174.99655801 102.30359382 -175.16656719 95.29828921 -175.13183594 87.953125 C-175.12619629 86.71014648 -175.12055664 85.46716797 -175.11474609 84.18652344 C-174.7194783 54.29488571 -161.5473302 27.81928615 -140.3425293 7.0703125 C-126.21450082 -6.15331436 -108.57648083 -14.95697503 -89.81933594 -19.359375 C-89.10624268 -19.53670166 -88.39314941 -19.71402832 -87.65844727 -19.89672852 C-57.34679367 -26.82061645 -24.64706274 -18.41584076 0 0 Z M-66.81933594 -4.359375 C-68.93349925 -2.9614863 -68.93349925 -2.9614863 -71.13183594 -0.921875 C-91.78405841 16.27327967 -117.98343413 22.59771374 -144.11865234 25.17675781 C-145.00356354 25.26435364 -145.88847473 25.35194946 -146.80020142 25.44219971 C-147.799673 25.54042023 -147.799673 25.54042023 -148.81933594 25.640625 C-148.87086836 32.12862679 -148.9054104 38.61657417 -148.92919922 45.10473633 C-148.93913668 47.30299857 -148.95269128 49.50124803 -148.97021484 51.69946289 C-149.268596 90.14675244 -143.02934086 124.79754354 -115.56933594 153.265625 C-105.05454767 163.44075017 -93.16600814 171.8449119 -80.81933594 179.640625 C-80.17834961 180.05070801 -79.53736328 180.46079102 -78.87695312 180.88330078 C-76.99594479 182.07561583 -75.09970728 183.2377336 -73.19433594 184.390625 C-72.08832031 185.06609375 -70.98230469 185.7415625 -69.84277344 186.4375 C-66.96222222 187.91323695 -66.96222222 187.91323695 -64.38574219 187.09375 C-63.53882813 186.61421875 -62.69191406 186.1346875 -61.81933594 185.640625 C-60.665625 185.0425 -59.51191406 184.444375 -58.32324219 183.828125 C-26.50793064 166.367319 1.49092313 141.56443129 11.99316406 105.765625 C15.6777846 92.67705995 17.34021118 80.55621359 17.27832031 66.94921875 C17.27690536 65.76336685 17.27549042 64.57751495 17.27403259 63.35572815 C17.26846915 59.59650061 17.25592347 55.83733431 17.24316406 52.078125 C17.23814434 49.51757899 17.23358226 46.95703204 17.22949219 44.39648438 C17.21851171 38.14451063 17.20181029 31.89257219 17.18066406 25.640625 C16.28968018 25.58801514 15.39869629 25.53540527 14.48071289 25.48120117 C7.18153484 25.01174893 0.04838134 24.35310828 -7.13183594 22.953125 C-8.02281982 22.77942383 -8.91380371 22.60572266 -9.83178711 22.42675781 C-28.72793159 18.53731686 -46.3289171 10.93361195 -61.24511719 -1.35546875 C-63.7194189 -3.51118944 -63.7194189 -3.51118944 -66.81933594 -4.359375 Z " fill="#FBFDFC" transform="translate(193.8193359375,30.359375)"/>
<path d="M0 0 C12.1565271 9.52808881 23.14456001 20.69601943 31.0625 34 C31.43955078 34.6295459 31.81660156 35.2590918 32.20507812 35.90771484 C48.10182746 62.86278774 52.8902053 95.54016924 45.0625 126 C40.27825753 143.14644564 32.52796936 158.41395793 21.0625 172 C20.34320313 172.87140625 19.62390625 173.7428125 18.8828125 174.640625 C0.40214566 196.16755561 -25.87576201 210.02343341 -53.9375 214 C-70.8941395 214.84964847 -88.7517419 215.6984263 -104.9375 210 C-106.0821875 209.61457031 -107.226875 209.22914063 -108.40625 208.83203125 C-125.48477643 202.66700243 -139.84562999 193.49678501 -152.9375 181 C-154.02417969 180.04287109 -154.02417969 180.04287109 -155.1328125 179.06640625 C-169.68154929 165.69095469 -179.78833596 145.90410686 -184.9375 127 C-185.2365625 125.90558594 -185.535625 124.81117188 -185.84375 123.68359375 C-187.89389878 114.73317568 -188.21860633 105.98428074 -188.25 96.8125 C-188.25547852 95.64912109 -188.26095703 94.48574219 -188.26660156 93.28710938 C-188.06359644 68.52048386 -179.86631535 43.20992696 -163.9375 24 C-163.49535156 23.45005371 -163.05320312 22.90010742 -162.59765625 22.33349609 C-122.82423806 -27.07338889 -51.67876803 -36.58550738 0 0 Z M-101.9375 -9 C-103.07703125 -8.63777344 -104.2165625 -8.27554687 -105.390625 -7.90234375 C-118.13068478 -3.36331279 -129.78489272 3.06296627 -139.9375 12 C-140.73285156 12.65226562 -141.52820313 13.30453125 -142.34765625 13.9765625 C-162.13720619 30.72397877 -176.39593822 56.01658644 -178.9375 82 C-179.68656912 97.6759013 -179.76840316 112.9596431 -174.9375 128 C-174.60008789 129.0506665 -174.60008789 129.0506665 -174.25585938 130.12255859 C-164.98349613 158.09929644 -145.81570137 180.62961029 -119.70703125 194.24609375 C-94.45236457 206.90193123 -63.22584326 209.58091459 -36.19091797 200.77832031 C-8.22250205 191.11815672 14.75015124 171.50312355 28.0625 145 C41.24325343 117.08781627 43.04777758 86.48784667 32.67285156 57.42016602 C28.10875229 45.41954364 21.53150118 34.63657221 13.0625 25 C12.38832031 24.18273438 11.71414062 23.36546875 11.01953125 22.5234375 C-5.00231185 3.67077695 -31.11124588 -10.82813369 -55.9375 -13 C-71.61164758 -13.91154617 -86.89041074 -13.79379781 -101.9375 -9 Z " fill="#4CC9B9" transform="translate(197.9375,22)"/>
<path d="M0 0 C5.61 0 11.22 0 17 0 C24.05584064 15.52713867 31.07814807 31.06857536 37.93890381 46.68310547 C38.56285289 48.10244011 39.18805636 49.52122398 39.81451416 50.93945312 C40.6900055 52.92285062 41.56058933 54.9083256 42.4296875 56.89453125 C42.92710449 58.02737549 43.42452148 59.16021973 43.93701172 60.32739258 C45 63 45 63 45 65 C39.72 65 34.44 65 29 65 C24 54.25 24 54.25 24 52 C8.655 52.495 8.655 52.495 -7 53 C-8.65 56.96 -10.3 60.92 -12 65 C-17.28 65 -22.56 65 -28 65 C-23.71222588 53.33408478 -18.60880887 42.10739176 -13.4375 30.8125 C-12.1553052 28.00765347 -10.87429024 25.20228688 -9.59596252 22.39567566 C-8.80693794 20.66372969 -8.01571562 18.93278243 -7.2217865 17.20307922 C-4.63626 11.53297837 -2.27973257 5.80005481 0 0 Z " fill="#244481" transform="translate(415,76)"/>
<path d="M0 0 C1.38868286 -0.00580078 1.38868286 -0.00580078 2.80541992 -0.01171875 C10.71125105 0.12044665 16.87157417 1.76688918 23.9375 5.4375 C23.46059796 7.06316606 22.98090334 8.68801311 22.5 10.3125 C22.23316406 11.21742187 21.96632813 12.12234375 21.69140625 13.0546875 C20.9375 15.4375 20.9375 15.4375 19.9375 17.4375 C16.31898185 16.97358742 13.14003601 16.16760366 9.75 14.875 C4.59188577 13.100259 -0.65878608 12.56950186 -6.0625 13.4375 C-8.4002131 14.64697376 -8.4002131 14.64697376 -10.0625 16.4375 C-10.39647787 19.56336875 -10.39647787 19.56336875 -10.0625 22.4375 C-5.82511845 25.23031966 -2.14508909 26.79002733 2.8125 27.9375 C11.04103871 29.85063525 17.83524631 32.48408177 23.9375 38.4375 C26.6871614 42.90099144 26.4537429 47.34766767 25.9375 52.4375 C23.59796821 58.96356235 19.05204958 63.30183355 12.9375 66.4375 C2.62248187 69.57567049 -12.16876479 68.90674939 -21.94140625 64.60546875 C-24.35421472 63.27686887 -26.71466677 61.8775594 -29.0625 60.4375 C-28.60804036 59.01958592 -28.14875056 57.60321954 -27.6875 56.1875 C-27.43226563 55.39859375 -27.17703125 54.6096875 -26.9140625 53.796875 C-26.11076333 51.57122042 -25.16538338 49.52818328 -24.0625 47.4375 C-22.81533203 48.06978516 -22.81533203 48.06978516 -21.54296875 48.71484375 C-19.91294922 49.53662109 -19.91294922 49.53662109 -18.25 50.375 C-16.63158203 51.19291016 -16.63158203 51.19291016 -14.98046875 52.02734375 C-10.47741883 54.20351647 -7.10183834 54.62483257 -2.125 54.6875 C-0.89910156 54.71328125 0.32679688 54.7390625 1.58984375 54.765625 C5.11860113 54.41974913 6.5351605 54.00675142 8.9375 51.4375 C9.27147787 48.31163125 9.27147787 48.31163125 8.9375 45.4375 C4.1007778 42.76071754 -0.56426805 41.43259806 -5.875 40.125 C-13.66740129 38.07789044 -20.81420905 35.88331756 -25.7578125 29.1171875 C-28.26088175 23.97615306 -28.05788964 17.71399091 -26.40625 12.27734375 C-23.61581169 6.80471689 -18.95124296 3.67118872 -13.46484375 1.328125 C-8.93837891 0.14324098 -4.66327478 0.0133678 0 0 Z " fill="#254582" transform="translate(303.0625,74.5625)"/>
<path d="M0 0 C-1.33333333 4 -2.66666667 8 -4 12 C-5.45903258 11.69078116 -6.91720722 11.37751201 -8.375 11.0625 C-9.18710937 10.88847656 -9.99921875 10.71445313 -10.8359375 10.53515625 C-13 10 -13 10 -15 9 C-17.65673808 8.90170936 -20.2813485 8.86098337 -22.9375 8.875 C-23.66646484 8.87113281 -24.39542969 8.86726563 -25.14648438 8.86328125 C-28.35857736 8.8691696 -30.9321444 8.97738147 -34 10 C-34 12.64 -34 15.28 -34 18 C-30.84140953 19.37901039 -27.65522868 20.421042 -24.34765625 21.3671875 C-23.48849609 21.61339844 -22.62933594 21.85960938 -21.74414062 22.11328125 C-19.96203748 22.61948681 -18.17817263 23.11953237 -16.39257812 23.61328125 C-8.80675048 25.80663666 -3.7032351 28.38063208 1 35 C2.9937211 38.9874422 2.51476423 43.66545119 2 48 C-0.15033141 53.60754527 -3.62462822 57.31231411 -9 60 C-21.28487188 64.67513246 -32.99017091 64.18208369 -45 59 C-47.44330248 57.77420757 -49.69028133 56.46982097 -52 55 C-51.33501617 50.61110675 -49.81242323 47.0188515 -48 43 C-44.66474487 43.67013209 -42.06043992 44.9801287 -39.0625 46.5625 C-32.09591695 49.79798689 -24.44376491 50.58361812 -17.1171875 47.97265625 C-16.41851562 47.65167969 -15.71984375 47.33070312 -15 47 C-15 44.69 -15 42.38 -15 40 C-20.58428267 36.91253602 -26.22409655 35.48778327 -32.3671875 33.98242188 C-39.59511572 32.10243044 -44.59030878 29.20623208 -49 23 C-51.2417363 18.51652741 -50.59021251 12.85222788 -50 8 C-47.36260154 1.98107993 -42.84207251 -1.3445125 -37 -4 C-24.57444035 -7.31498597 -11.34707575 -5.70409553 0 0 Z " fill="#264582" transform="translate(515,80)"/>
<path d="M0 0 C18.81 0 37.62 0 57 0 C57 3.96 57 7.92 57 12 C50.07 12 43.14 12 36 12 C36 29.49 36 46.98 36 65 C31.05 65 26.1 65 21 65 C21 47.51 21 30.02 21 12 C14.07 12 7.14 12 0 12 C0 8.04 0 4.08 0 0 Z " fill="#23427F" transform="translate(332,76)"/>
<path d="M0 0 C5.05314245 1.31035289 8.33740325 3.58884876 12.0625 7.125 C12.58763184 7.61564941 13.11276367 8.10629883 13.65380859 8.61181641 C17.52194833 12.32266551 20.70997429 16.11048565 23 21 C23.53947266 22.10988281 23.53947266 22.10988281 24.08984375 23.2421875 C26.22652033 29.71640924 26.11044574 38.29679257 24.16015625 44.80078125 C20.6359503 51.67120295 14.86601094 57.18693931 7.625 59.9375 C-4.65542684 63.3172414 -17.06828569 59.66541124 -28.0390625 53.86328125 C-36.76924454 48.36948595 -45.40480216 40.87162148 -47.8125 30.5 C-47.874375 29.675 -47.93625 28.85 -48 28 C-45.8125 25.9375 -45.8125 25.9375 -43 24 C-40.1875 24.25 -40.1875 24.25 -38 25 C-37.90525391 25.8353125 -37.90525391 25.8353125 -37.80859375 26.6875 C-36.58900854 34.28744155 -33.09712562 38.68705542 -27.18359375 43.46875 C-18.73979016 49.25072824 -8.20898702 52.55251876 2 51 C7.3538934 49.31734779 10.93359871 46.783586 14 42 C15.84657574 36.46027279 15.59596526 30.92033251 13.875 25.375 C9.93527133 18.28348839 5.85263913 13.38568905 -1 9 C-0.67 6.03 -0.34 3.06 0 0 Z " fill="#49C5B4" transform="translate(161,115)"/>
<path d="M0 0 C0.79792969 -0.00128906 1.59585938 -0.00257812 2.41796875 -0.00390625 C3.24683594 -0.00003906 4.07570312 0.00382812 4.9296875 0.0078125 C6.18458984 0.00201172 6.18458984 0.00201172 7.46484375 -0.00390625 C13.67803876 0.00616376 13.67803876 0.00616376 14.8046875 1.1328125 C15.2421875 3.9453125 15.2421875 3.9453125 14.8046875 7.1328125 C11.8046875 9.5078125 11.8046875 9.5078125 8.8046875 11.1328125 C8.24007812 10.80023438 7.67546875 10.46765625 7.09375 10.125 C1.68637966 7.78119101 -4.85601234 9.80045046 -10.1953125 11.6953125 C-18.90570368 15.49496346 -26.07652377 21.49293475 -30.1953125 30.1328125 C-32.14464018 35.98079553 -32.47842586 43.49302331 -29.6953125 49.1328125 C-25.76022102 53.85492228 -22.30773843 55.70154825 -16.20703125 56.546875 C-8.78631895 56.88458406 -3.23693612 55.41093767 3.44140625 52.2265625 C5.8046875 51.1328125 5.8046875 51.1328125 7.8046875 51.1328125 C12.46377841 55.45099432 12.46377841 55.45099432 13.8046875 58.1328125 C2.73669413 63.6450218 -10.09877925 68.88641248 -22.6015625 65.4765625 C-29.71529857 62.65055776 -36.03342697 57.95548343 -39.6953125 51.1328125 C-42.42238468 43.97883391 -42.48042826 35.61836079 -40.3828125 28.296875 C-35.47708455 17.49745999 -26.1968054 8.47752257 -15.2890625 3.91796875 C-12.6069346 2.92628725 -9.91878812 2.00343176 -7.1953125 1.1328125 C-4.45628524 0.21980341 -2.8208298 0.00434642 0 0 Z " fill="#49C3B3" transform="translate(111.1953125,109.8671875)"/>
<path d="M0 0 C8.69154802 -0.3403317 14.38414665 2.27484992 20.734375 8.1328125 C28.88545503 16.68150619 32.2371954 26.208776 32.09375 37.8984375 C32.08617676 38.76952148 32.07860352 39.64060547 32.07080078 40.53808594 C31.79069949 51.59901995 29.18663423 60.83991357 21.65625 69.1484375 C15.78125 68.2734375 15.78125 68.2734375 14.65625 67.1484375 C14.34375 64.3359375 14.34375 64.3359375 14.65625 61.1484375 C15.94442344 59.77142452 17.28429426 58.44199577 18.65625 57.1484375 C22.98533634 48.49026482 24.17642221 38.68952136 21.97265625 29.20703125 C19.42483443 21.60585328 15.93223716 14.65282979 8.71875 10.6484375 C4.86284984 9.01681371 1.85874886 8.4730359 -2.34375 9.1484375 C-9.62591168 12.49466622 -13.99179739 17.63025912 -17.4609375 24.74609375 C-19.16463959 29.3822742 -19.72549374 34.26746699 -20.34375 39.1484375 C-25.96875 41.1484375 -25.96875 41.1484375 -29.34375 41.1484375 C-28.9275081 28.05762962 -26.24126283 17.12760875 -17.34375 7.1484375 C-11.79630976 2.39348873 -7.25197377 0.45929167 0 0 Z " fill="#4AC5B4" transform="translate(126.34375,67.8515625)"/>
<path d="M0 0 C8.19256018 -0.4726477 8.19256018 -0.4726477 11.5625 1.5 C12.036875 1.995 12.51125 2.49 13 3 C13.61875 2.690625 14.2375 2.38125 14.875 2.0625 C18.14408741 0.4279563 19.94911386 -0.11501266 23.625 -0.0625 C24.85089844 -0.04896484 24.85089844 -0.04896484 26.1015625 -0.03515625 C27.04128906 -0.01775391 27.04128906 -0.01775391 28 0 C28 0.99 28 1.98 28 3 C29.32 3 30.64 3 32 3 C32 10.26 32 17.52 32 25 C19.77446139 25.76409616 8.19657935 26.01638161 -4 25 C-4 17.74 -4 10.48 -4 3 C-3.01 3 -2.02 3 -1 3 C-0.67 2.01 -0.34 1.02 0 0 Z " fill="#4C6398" transform="translate(59,69)"/>
<path d="M0 0 C4.76560621 1.40164889 7.95882443 4.15411474 11 8 C11 8.66 11 9.32 11 10 C9.6015625 11.33984375 9.6015625 11.33984375 7.625 12.9375 C4.01636743 15.95957039 1.04235792 19.22383633 -2 22.8125 C-6.2385365 27.56539039 -8.65945457 29.46266564 -15 30 C-18 30.125 -18 30.125 -20 30 C-19.20549704 22.31980473 -18.53473047 16.75563263 -12.3125 11.5625 C-8.00698675 7.87563089 -3.94753954 4.06518145 0 0 Z " fill="#E4E8EE" transform="translate(188,69)"/>
<path d="M0 0 C9 0 9 0 11.546875 0.89453125 C14.0279805 4.48946636 13.41129121 8.44740226 13.25 12.6875 C13.23195313 13.58017578 13.21390625 14.47285156 13.1953125 15.39257812 C13.14819096 17.59551018 13.07644739 19.79789058 13 22 C8.71 21.34 4.42 20.68 0 20 C0 13.4 0 6.8 0 0 Z " fill="#F6F8FA" transform="translate(59,69)"/>
<path d="M0 0 C0.99 0 1.98 0 3 0 C3.99 0 4.98 0 6 0 C6.13559675 2.56428515 6.23433188 5.12135216 6.3125 7.6875 C6.35439453 8.40873047 6.39628906 9.12996094 6.43945312 9.87304688 C6.53392685 14.01099623 6.32388931 15.56814759 3.75 19 C-0.2425906 21.90370225 -2.20655707 21.40622398 -7 21 C-7.66 19.68 -8.32 18.36 -9 17 C-5.7 17 -2.4 17 1 17 C1.66 15.68 2.32 14.36 3 13 C2.46375 13.350625 1.9275 13.70125 1.375 14.0625 C-1.81689475 15.32245845 -3.72424145 14.90606087 -7 14 C-8.875 12.875 -8.875 12.875 -10 11 C-10.50030235 7.06905293 -10.5996142 4.8994213 -8.375 1.5625 C-5.36080314 -0.42052425 -3.54815566 -0.30197069 0 0 Z " fill="#A0A6A9" transform="translate(508,163)"/>
<path d="M0 0 C0 6.6 0 13.2 0 20 C-6.435 20.495 -6.435 20.495 -13 21 C-13.107834 18.06152347 -13.18721916 15.12698849 -13.25 12.1875 C-13.28351563 11.35412109 -13.31703125 10.52074219 -13.3515625 9.66210938 C-13.44830452 3.63991855 -13.44830452 3.63991855 -11.546875 0.92578125 C-9 0 -9 0 0 0 Z " fill="#F7F8FA" transform="translate(87,69)"/>
<path d="M0 0 C2.15157358 2.15157358 2.82124844 3.66639841 3.9453125 6.46484375 C4.29980469 7.34720703 4.65429688 8.22957031 5.01953125 9.13867188 C5.38433594 10.06228516 5.74914062 10.98589844 6.125 11.9375 C6.49753906 12.85724609 6.87007813 13.77699219 7.25390625 14.72460938 C7.60582031 15.60826172 7.95773437 16.49191406 8.3203125 17.40234375 C8.64273926 18.21179443 8.96516602 19.02124512 9.29736328 19.85522461 C10 22 10 22 10 25 C3.73 25 -2.54 25 -9 25 C-8.26268982 21.31344912 -7.53481038 18.53802554 -6.15234375 15.13671875 C-5.61577148 13.80737305 -5.61577148 13.80737305 -5.06835938 12.45117188 C-4.50858398 11.0831543 -4.50858398 11.0831543 -3.9375 9.6875 C-3.56044922 8.75615234 -3.18339844 7.82480469 -2.79492188 6.86523438 C-1.86716875 4.57521083 -0.93541999 2.28690004 0 0 Z " fill="#EEF1F4" transform="translate(423,91)"/>
<path d="M0 0 C3 2.0625 3 2.0625 5 5 C5 8.50379323 4.87941927 10.84710279 2.71875 13.6796875 C-0.04226025 15.80064537 -2.52577622 15.53649372 -5.8984375 15.41015625 C-8 15 -8 15 -10.125 12.9375 C-11.24056976 9.19237294 -10.97711367 6.76886703 -10 3 C-7.66897338 -1.01454584 -4.26704738 -0.58855826 0 0 Z " fill="#A5ACAD" transform="translate(445,163)"/>
<path d="M0 0 C1.32 0.33 2.64 0.66 4 1 C5.7325 0.7525 5.7325 0.7525 7.5 0.5 C10.65041371 0.0499409 12.07311867 0.1327759 15 1 C15.66 0.67 16.32 0.34 17 0 C22.30863536 -0.45179875 22.30863536 -0.45179875 24.6796875 1.09765625 C26.6498936 3.93638516 26.28865242 6.28203517 26.1875 9.6875 C26.16042969 10.86699219 26.13335937 12.04648438 26.10546875 13.26171875 C26.07066406 14.16535156 26.03585937 15.06898438 26 16 C25.01 16 24.02 16 23 16 C22.67 12.04 22.34 8.08 22 4 C20.35 4 18.7 4 17 4 C15.26043342 5.73956658 15.62809614 8.1936622 15.4375 10.5625 C15.35371094 11.57441406 15.26992188 12.58632812 15.18359375 13.62890625 C15.12300781 14.41136719 15.06242187 15.19382813 15 16 C14.01 16 13.02 16 12 16 C11.93941406 15.21753906 11.87882812 14.43507812 11.81640625 13.62890625 C11.73261719 12.61699219 11.64882813 11.60507813 11.5625 10.5625 C11.48128906 9.55316406 11.40007812 8.54382813 11.31640625 7.50390625 C11.26788532 5.06359221 11.26788532 5.06359221 10 4 C7.5 3.83333333 7.5 3.83333333 5 4 C3.26043342 5.73956658 3.62809614 8.1936622 3.4375 10.5625 C3.35371094 11.57441406 3.26992188 12.58632812 3.18359375 13.62890625 C3.12300781 14.41136719 3.06242187 15.19382813 3 16 C2.01 16 1.02 16 0 16 C0 10.72 0 5.44 0 0 Z " fill="#A6ADAE" transform="translate(295,163)"/>
<path d="M0 0 C0.66 0 1.32 0 2 0 C2 5.94 2 11.88 2 18 C3.670625 17.979375 5.34125 17.95875 7.0625 17.9375 C11.47947475 17.92614531 15.62726395 18.37532342 20 19 C20.61488281 18.8453125 21.22976562 18.690625 21.86328125 18.53125 C24.38995748 17.90304531 26.6498845 17.90328795 29.25 17.9375 C30.8175 17.958125 32.385 17.97875 34 18 C34 12.06 34 6.12 34 0 C34.66 0 35.32 0 36 0 C36 6.93 36 13.86 36 21 C23.77446139 21.76409616 12.19657935 22.01638161 0 21 C0 14.07 0 7.14 0 0 Z " fill="#D2DAE6" transform="translate(55,73)"/>
<path d="M0 0 C5.95703125 -0.390625 5.95703125 -0.390625 8 0 C10.47089399 2.29440156 10.96555734 3.64547018 11.29296875 7.015625 C11.25816406 8.08296875 11.22335937 9.1503125 11.1875 10.25 C11.16042969 11.32765625 11.13335937 12.4053125 11.10546875 13.515625 C11.07066406 14.33546875 11.03585937 15.1553125 11 16 C10.38125 15.814375 9.7625 15.62875 9.125 15.4375 C6.95839822 14.76313824 6.95839822 14.76313824 5 16 C2 16.25 2 16.25 -1 16 C-3 13 -3 13 -2.8125 10.4375 C-2 8 -2 8 1 6 C3.33199388 5.92094936 5.66832622 5.91201231 8 6 C7.67 5.34 7.34 4.68 7 4 C4.03 4 1.06 4 -2 4 C-1.34 2.68 -0.68 1.36 0 0 Z " fill="#A4ADB0" transform="translate(329,163)"/>
<path d="M0 0 C3.24271506 0.5590888 4.93057424 1.4132178 7 4 C7 4.66 7 5.32 7 6 C5.56640625 7.375 5.56640625 7.375 3.5625 9 C-1.44723852 13.23900951 -5.70195744 18.05526122 -10 23 C-10.66 22.67 -11.32 22.34 -12 22 C-11.56567447 17.62572148 -8.64235179 15.3039842 -5.625 12.4375 C-5.13 11.95603516 -4.635 11.47457031 -4.125 10.97851562 C-2.75510043 9.6470758 -1.37780448 8.32325797 0 7 C1.00316955 6.00317963 2.00508896 5.00506319 3 4 C-1.32504836 5.65863505 -4.09418825 8.871041 -7.25 12.125 C-8.08144531 12.96998047 -8.08144531 12.96998047 -8.9296875 13.83203125 C-10.29104485 15.21686028 -11.64614859 16.60783204 -13 18 C-14.32 17.34 -15.64 16.68 -17 16 C-15.85481604 14.85481604 -14.70865422 13.71059909 -13.55859375 12.5703125 C-12.4519132 11.45531104 -11.3623844 10.32316886 -10.28515625 9.1796875 C-7.08873378 5.83638347 -4.5997776 3.2544848 0 2 C0 1.34 0 0.68 0 0 Z " fill="#EBEEF5" transform="translate(192,73)"/>
<path d="M0 0 C0.99 0.33 1.98 0.66 3 1 C3 1.99 3 2.98 3 4 C-0.3 4 -3.6 4 -7 4 C-7 4.99 -7 5.98 -7 7 C-6.37351562 7.26554688 -5.74703125 7.53109375 -5.1015625 7.8046875 C-3.87566406 8.33449219 -3.87566406 8.33449219 -2.625 8.875 C-1.81289063 9.22304687 -1.00078125 9.57109375 -0.1640625 9.9296875 C2 11 2 11 4 13 C3.84491045 16.02424622 3.40750539 17.54547475 1.375 19.8125 C-1.91148074 21.45574037 -4.37017617 21.32409141 -8 21 C-10.4375 20 -10.4375 20 -12 19 C-12 18.01 -12 17.02 -12 16 C-8.37 16.33 -4.74 16.66 -1 17 C-0.67 16.01 -0.34 15.02 0 14 C-0.62648438 13.73445312 -1.25296875 13.46890625 -1.8984375 13.1953125 C-2.71570313 12.84210938 -3.53296875 12.48890625 -4.375 12.125 C-5.18710937 11.77695313 -5.99921875 11.42890625 -6.8359375 11.0703125 C-9 10 -9 10 -11 8 C-11.35131571 5.25973747 -11.34419875 3.62386024 -10 1.1875 C-6.84434523 -0.68617002 -3.58272887 -0.37560867 0 0 Z " fill="#A4ADB1" transform="translate(286,158)"/>
<path d="M0 0 C10.02272727 -0.47727273 10.02272727 -0.47727273 13.6875 1.3125 C15.82758961 5.69458826 15.29707731 10.21375444 15 15 C14.01 15.33 13.02 15.66 12 16 C11.67 12.04 11.34 8.08 11 4 C9.02 4 7.04 4 5 4 C3.26043342 5.73956658 3.62809614 8.1936622 3.4375 10.5625 C3.35371094 11.57441406 3.26992188 12.58632812 3.18359375 13.62890625 C3.12300781 14.41136719 3.06242187 15.19382813 3 16 C2.01 16 1.02 16 0 16 C0 10.72 0 5.44 0 0 Z " fill="#A7ADB0" transform="translate(478,163)"/>
<path d="M0 0 C0.99 0.33 1.98 0.66 3 1 C0.46459498 3.54910991 -2.08284856 6.079583 -4.67578125 8.5703125 C-5.54589844 9.41335937 -6.41601562 10.25640625 -7.3125 11.125 C-8.19550781 11.97320312 -9.07851562 12.82140625 -9.98828125 13.6953125 C-12.32880007 15.86681984 -12.32880007 15.86681984 -12 19 C-13.47831221 19.19412181 -14.95769316 19.38012131 -16.4375 19.5625 C-17.26121094 19.66691406 -18.08492187 19.77132812 -18.93359375 19.87890625 C-19.61550781 19.91886719 -20.29742187 19.95882812 -21 20 C-21.33 19.67 -21.66 19.34 -22 19 C-21.82364548 16.30917128 -21.38164079 13.67148554 -21 11 C-20.13375 11.495 -20.13375 11.495 -19.25 12 C-16.80116138 13.27075898 -16.80116138 13.27075898 -13 13 C-11.27849801 11.82718105 -11.27849801 11.82718105 -9.765625 10.15625 C-9.19199219 9.56972656 -8.61835938 8.98320313 -8.02734375 8.37890625 C-7.44082031 7.75886719 -6.85429687 7.13882813 -6.25 6.5 C-5.64800781 5.87996094 -5.04601562 5.25992188 -4.42578125 4.62109375 C-2.94136366 3.08955179 -1.46945655 1.54590226 0 0 Z " fill="#1D3D84" transform="translate(193,76)"/>
<path d="M0 0 C0.99 0 1.98 0 3 0 C3.33 3.63 3.66 7.26 4 11 C5.65 11.33 7.3 11.66 9 12 C10.73956658 10.26043342 10.37190386 7.8063378 10.5625 5.4375 C10.64628906 4.42558594 10.73007812 3.41367188 10.81640625 2.37109375 C10.87699219 1.58863281 10.93757813 0.80617187 11 0 C11.99 0 12.98 0 14 0 C14 4.95 14 9.9 14 15 C3.60148285 15.36700649 3.60148285 15.36700649 1.15625 13.875 C-0.52442783 11.14957649 -0.28970839 8.98096012 -0.1875 5.8125 C-0.16042969 4.72582031 -0.13335937 3.63914063 -0.10546875 2.51953125 C-0.07066406 1.68808594 -0.03585937 0.85664063 0 0 Z " fill="#A0AAAD" transform="translate(401,163)"/>
<path d="M0 0 C5.28 0 10.56 0 16 0 C16 0.99 16 1.98 16 3 C14.02 3 12.04 3 10 3 C10 8.94 10 14.88 10 21 C9.01 21 8.02 21 7 21 C7 15.06 7 9.12 7 3 C4.69 3 2.38 3 0 3 C0 2.01 0 1.02 0 0 Z " fill="#ACB2B4" transform="translate(381,158)"/>
<path d="M0 0 C2.4375 0.8125 2.4375 0.8125 4.4375 2.8125 C4.75 5.8125 4.75 5.8125 4.4375 8.8125 C1.22941085 10.9512261 0.16051503 11.28980962 -3.5625 10.8125 C-5.71752531 7.57996204 -6.03106135 6.56099077 -5.5625 2.8125 C-3.86282344 0.12880016 -3.19877434 -0.23405666 0 0 Z " fill="#FAF9F9" transform="translate(442.5625,165.1875)"/>
<path d="M0 0 C4.875 1.75 4.875 1.75 6 4 C5.34 4 4.68 4 4 4 C4 4.66 4 5.32 4 6 C2.49609375 7.26171875 2.49609375 7.26171875 0.4375 8.6875 C-3.29748715 11.37430248 -6.42449575 14.31655125 -9.5546875 17.6796875 C-11 19 -11 19 -13 19 C-11.97986041 16.53466265 -11.33836964 15.21830299 -9.0625 13.75 C-6.37092743 11.46624146 -5.88787906 9.22613719 -4.79296875 5.94140625 C-3.73200059 3.3438635 -2.14098169 1.77184692 0 0 Z " fill="#DCE1EB" transform="translate(188,69)"/>
<path d="M0 0 C0.99 0 1.98 0 3 0 C3 1.32 3 2.64 3 4 C4.32 4 5.64 4 7 4 C7 4.66 7 5.32 7 6 C5.68 6 4.36 6 3 6 C3 9.63 3 13.26 3 17 C4.32 17 5.64 17 7 17 C7 17.66 7 18.32 7 19 C5.00045254 19.04254356 2.99958364 19.04080783 1 19 C0 18 0 18 -0.09765625 15.49609375 C-0.08605469 14.48675781 -0.07445312 13.47742188 -0.0625 12.4375 C-0.05347656 11.42558594 -0.04445313 10.41367188 -0.03515625 9.37109375 C-0.02355469 8.58863281 -0.01195312 7.80617187 0 7 C-0.99 7 -1.98 7 -3 7 C-3 6.01 -3 5.02 -3 4 C-2.01 4 -1.02 4 0 4 C0 2.68 0 1.36 0 0 Z " fill="#A7B0B2" transform="translate(360,159)"/>
<path d="M0 0 C2.4375 0.75 2.4375 0.75 4.4375 2.75 C4.10778521 6.04714793 3.8148161 7.3726839 1.4375 9.75 C-1.0625 10 -1.0625 10 -3.5625 9.75 C-5.5625 7.75 -5.5625 7.75 -5.875 4.75 C-5.771875 3.76 -5.66875 2.77 -5.5625 1.75 C-2.5625 -0.25 -2.5625 -0.25 0 0 Z " fill="#F8F8F8" transform="translate(506.5625,165.25)"/>
<path d="M0 0 C0.125 6.625 0.125 6.625 -1 10 C-3.31 9.67 -5.62 9.34 -8 9 C-8.33 6.69 -8.66 4.38 -9 2 C-5.5647952 -0.29013653 -4.014669 -0.17842973 0 0 Z " fill="#EA9A3D" transform="translate(146,109)"/>
<path d="M0 0 C2.70931419 0.15481795 4.46584039 0.48172081 6.4453125 2.40234375 C7.67679642 3.89771708 8.8429837 5.4462924 10 7 C9.34 8.65 8.68 10.3 8 12 C3.70761377 10.34908222 1.1206085 7.26245434 -2 4 C-1.34 2.68 -0.68 1.36 0 0 Z " fill="#F2F4F7" transform="translate(194,64)"/>
<path d="M0 0 C3.0625 0.1875 3.0625 0.1875 5.0625 2.1875 C4.70950993 5.62915321 4.01668308 7.25622538 2.0625 10.1875 C-0.25748359 9.78750283 -1.80073424 9.28182121 -3.75 7.9375 C-4.9375 6.1875 -4.9375 6.1875 -4.6875 3.5625 C-3.63578571 0.23207143 -3.63578571 0.23207143 0 0 Z " fill="#EBA44A" transform="translate(135.9375,145.8125)"/>
<path d="M0 0 C0.33 0 0.66 0 1 0 C1 6.27 1 12.54 1 19 C3.97 19 6.94 19 10 19 C12.78417356 19.46333943 15.28031943 20.2088202 18 21 C17.67 21.66 17.34 22.32 17 23 C11.06 22.34 5.12 21.68 -1 21 C-1 15.06 -1 9.12 -1 3 C-1.66 2.67 -2.32 2.34 -3 2 C-2.01 2 -1.02 2 0 2 C0 1.34 0 0.68 0 0 Z " fill="#3F5892" transform="translate(58,70)"/>
<path d="M0 0 C1 1 1 1 1.1875 3.9375 C1 7 1 7 -1 9 C-3.4375 9.4375 -3.4375 9.4375 -6 9 C-7.81883009 6.6167054 -9 5.04181663 -9 2 C-5.87703962 0.14935681 -3.62059232 -0.29356154 0 0 Z " fill="#E79E49" transform="translate(109,123)"/>
<path d="M0 0 C0.66 0 1.32 0 2 0 C2 5.94 2 11.88 2 18 C3.77375 17.95875 5.5475 17.9175 7.375 17.875 C10.3984375 17.8046875 10.3984375 17.8046875 13 18 C13.66 18.66 14.32 19.32 15 20 C10.05 20 5.1 20 0 20 C0 13.4 0 6.8 0 0 Z " fill="#F6F9FC" transform="translate(55,73)"/>
<path d="M0 0 C0.66 0 1.32 0 2 0 C2 0.99 2 1.98 2 3 C3.65 3 5.3 3 7 3 C7 3.66 7 4.32 7 5 C5.35 5 3.7 5 2 5 C2.33 8.3 2.66 11.6 3 15 C4.32 15.33 5.64 15.66 7 16 C7 16.66 7 17.32 7 18 C5.00045254 18.04254356 2.99958364 18.04080783 1 18 C0 17 0 17 -0.09765625 14.27734375 C-0.08605469 13.17519531 -0.07445312 12.07304687 -0.0625 10.9375 C-0.05347656 9.83277344 -0.04445313 8.72804687 -0.03515625 7.58984375 C-0.02355469 6.73519531 -0.01195312 5.88054687 0 5 C-0.99 5 -1.98 5 -3 5 C-3 4.34 -3 3.68 -3 3 C-2.01 3 -1.02 3 0 3 C0 2.01 0 1.02 0 0 Z " fill="#939D9F" transform="translate(423,160)"/>
<path d="M0 0 C1.32 0.33 2.64 0.66 4 1 C6.18703385 0.62092718 6.18703385 0.62092718 8 0 C8 0.99 8 1.98 8 3 C7.03320312 3.32097656 7.03320312 3.32097656 6.046875 3.6484375 C3.72160885 4.8473523 3.72160885 4.8473523 3.390625 7.6015625 C3.34421875 8.59929687 3.2978125 9.59703125 3.25 10.625 C3.19328125 11.62789062 3.1365625 12.63078125 3.078125 13.6640625 C3.05234375 14.43492187 3.0265625 15.20578125 3 16 C2.01 16 1.02 16 0 16 C0 10.72 0 5.44 0 0 Z " fill="#9FA9AA" transform="translate(455,163)"/>
<path d="M0 0 C0.99 0 1.98 0 3 0 C3.99 0 4.98 0 6 0 C6 5.28 6 10.56 6 16 C5.67 16 5.34 16 5 16 C4.67 11.71 4.34 7.42 4 3 C3.34 3.66 2.68 4.32 2 5 C1.01 4.34 0.02 3.68 -1 3 C-3.64632287 3.3121764 -3.64632287 3.3121764 -6 4 C-6.33 5.65 -6.66 7.3 -7 9 C-7.99 8.01 -8.98 7.02 -10 6 C-7.82902043 -0.04772881 -6.27678291 -0.12809761 0 0 Z " fill="#AFB3B6" transform="translate(508,163)"/>
<path d="M0 0 C5.95703125 -0.390625 5.95703125 -0.390625 8 0 C10.47089399 2.29440156 10.96555734 3.64547018 11.29296875 7.015625 C11.25816406 8.08296875 11.22335937 9.1503125 11.1875 10.25 C11.16042969 11.32765625 11.13335937 12.4053125 11.10546875 13.515625 C11.07066406 14.33546875 11.03585937 15.1553125 11 16 C10.01 15.67 9.02 15.34 8 15 C8.66 15 9.32 15 10 15 C9.88590407 13.54077307 9.75834456 12.08259402 9.625 10.625 C9.55539062 9.81289062 9.48578125 9.00078125 9.4140625 8.1640625 C9.17107412 5.79665809 9.17107412 5.79665809 7 4 C4.78927023 3.75746187 4.78927023 3.75746187 2.375 3.875 C1.14910156 3.90207031 1.14910156 3.90207031 -0.1015625 3.9296875 C-1.04128906 3.96449219 -1.04128906 3.96449219 -2 4 C-1.34 2.68 -0.68 1.36 0 0 Z " fill="#AEB3B7" transform="translate(329,163)"/>
<path d="M0 0 C0.99 0.33 1.98 0.66 3 1 C-2.66666667 6.66666667 -8.33333333 12.33333333 -14 18 C-14 17.34 -14 16.68 -14 16 C-14.66 15.67 -15.32 15.34 -16 15 C-15.27296875 14.38125 -15.27296875 14.38125 -14.53125 13.75 C-9.45749491 9.37876484 -4.67847866 4.79046352 0 0 Z " fill="#3D5B9A" transform="translate(193,76)"/>
<path d="M0 0 C0.33 0 0.66 0 1 0 C1.48 5.4 1.48 5.4 -0.5 7.875 C-4.12260123 9.50517055 -7.04546658 9.19772667 -11 9 C-11.66 7.68 -12.32 6.36 -13 5 C-11.96939453 5.08701172 -11.96939453 5.08701172 -10.91796875 5.17578125 C-8.20217673 5.31176511 -5.6961874 5.3696386 -3 5 C-0.84397306 2.66250834 -0.84397306 2.66250834 0 0 Z " fill="#A0A9AD" transform="translate(512,175)"/>
<path d="M0 0 C1.32 0 2.64 0 4 0 C4.33 0.99 4.66 1.98 5 3 C4.01 4.485 4.01 4.485 3 6 C2.85778935 8.60245498 2.81197068 11.09117684 2.875 13.6875 C2.88402344 14.38939453 2.89304687 15.09128906 2.90234375 15.81445312 C2.92586296 17.54311525 2.96173287 19.27160145 3 21 C2.34 21 1.68 21 1 21 C0.67 14.07 0.34 7.14 0 0 Z " fill="#889798" transform="translate(468,157)"/>
<path d="M0 0 C2.33333333 0 4.66666667 0 7 0 C6 3 6 3 3 5 C2.41810734 7.42521494 2.41810734 7.42521494 2.3125 10.125 C2.24675781 11.03507813 2.18101562 11.94515625 2.11328125 12.8828125 C2.07589844 13.58148438 2.03851563 14.28015625 2 15 C1.34 15 0.68 15 0 15 C0 10.05 0 5.1 0 0 Z " fill="#949E9E" transform="translate(347,163)"/>
<path d="M0 0 C1.15628906 0.12568359 1.15628906 0.12568359 2.3359375 0.25390625 C3.33882813 0.35574219 4.34171875 0.45757812 5.375 0.5625 C6.37273437 0.66691406 7.37046875 0.77132812 8.3984375 0.87890625 C10.984037 1.21144708 10.984037 1.21144708 13 0 C13 1.32 13 2.64 13 4 C9.97562661 5.5121867 7.33758466 5.17263369 4 5 C1.5625 4 1.5625 4 0 3 C0 2.01 0 1.02 0 0 Z " fill="#A8B2B8" transform="translate(274,174)"/>
<path d="M0 0 C0.99 0.33 1.98 0.66 3 1 C3 1.66 3 2.32 3 3 C1.49609375 4.26171875 1.49609375 4.26171875 -0.5625 5.6875 C-4.29748715 8.37430248 -7.42449575 11.31655125 -10.5546875 14.6796875 C-12 16 -12 16 -14 16 C-12.5836449 12.66353464 -10.91828002 10.84455707 -8.125 8.5625 C-5.01224305 5.93646504 -2.40799436 3.31099224 0 0 Z " fill="#28478D" transform="translate(189,72)"/>
<path d="M0 0 C0 0.99 0 1.98 0 3 C-1.41199578 3.39222105 -2.82992764 3.76311059 -4.25 4.125 C-5.03890625 4.33382812 -5.8278125 4.54265625 -6.640625 4.7578125 C-9.4203071 5.04314411 -10.65887549 4.44977894 -13 3 C-11.40084119 2.30093058 -9.79544955 1.61610532 -8.1875 0.9375 C-7.29417969 0.55464844 -6.40085937 0.17179687 -5.48046875 -0.22265625 C-3 -1 -3 -1 0 0 Z " fill="#31437D" transform="translate(109,120)"/>
<path d="M0 0 C1.43791516 0.14168137 2.8753237 0.28851043 4.3125 0.4375 C5.11300781 0.51871094 5.91351563 0.59992188 6.73828125 0.68359375 C9 1 9 1 12 2 C9.03821227 3.67110042 6.62928808 4.32682752 3.25 4.625 C2.45078125 4.69976562 1.6515625 4.77453125 0.828125 4.8515625 C-0.07679688 4.92503906 -0.07679688 4.92503906 -1 5 C-0.67 3.35 -0.34 1.7 0 0 Z " fill="#D8DFEC" transform="translate(169,94)"/>
<path d="M0 0 C0.33 0.99 0.66 1.98 1 3 C-0.98 4.98 -2.96 6.96 -5 9 C-6.32 8.34 -7.64 7.68 -9 7 C-6.24479785 4.04070881 -3.53372712 1.96318174 0 0 Z " fill="#F0F2F6" transform="translate(184,82)"/>
<path d="M0 0 C-1.38877354 3.35620271 -2.91677965 5.07298728 -6 7 C-7.66666667 7 -9.33333333 7 -11 7 C-9.9296491 5.82141137 -8.84316035 4.6574639 -7.75 3.5 C-7.14671875 2.8503125 -6.5434375 2.200625 -5.921875 1.53125 C-4 0 -4 0 0 0 Z " fill="#E1E6EE" transform="translate(191,77)"/>
<path d="M0 0 C0.99 0 1.98 0 3 0 C2.690625 0.53625 2.38125 1.0725 2.0625 1.625 C0.83450108 4.03693841 0.83450108 4.03693841 0.6875 7.0625 C0 10 0 10 -2.5625 11.875 C-3.7690625 12.431875 -3.7690625 12.431875 -5 13 C-3.58192622 8.52761347 -1.88695626 4.28853694 0 0 Z " fill="#2F5287" transform="translate(393,126)"/>
<path d="M0 0 C2.31 0 4.62 0 7 0 C6.67 1.32 6.34 2.64 6 4 C3.69 4 1.38 4 -1 4 C-0.67 2.68 -0.34 1.36 0 0 Z " fill="#F5F5F5" transform="translate(330,172)"/>
<path d="M0 0 C0 0.99 0 1.98 0 3 C-0.7425 3.12375 -1.485 3.2475 -2.25 3.375 C-4.80141485 3.95486701 -6.7267573 4.73708739 -9 6 C-8.625 3.5625 -8.625 3.5625 -8 1 C-5.29120665 -0.35439668 -2.99066732 -0.06501451 0 0 Z " fill="#DC903F" transform="translate(146,109)"/>
<path d="M0 0 C3.26008643 3.16952847 6.22237877 6.39937989 9 10 C5.45290062 10 4.98219809 9.42237322 2.4375 7.125 C1.83808594 6.59132813 1.23867187 6.05765625 0.62109375 5.5078125 C-0.60942322 4.36328346 -1.81169896 3.18830104 -3 2 C-2.01 2 -1.02 2 0 2 C0 1.34 0 0.68 0 0 Z " fill="#4F669F" transform="translate(191,66)"/>
<path d="M0 0 C0.928125 0.7425 0.928125 0.7425 1.875 1.5 C3.83880904 3.19222773 3.83880904 3.19222773 6 3 C6.33 2.34 6.66 1.68 7 1 C6.67 2.65 6.34 4.3 6 6 C3.625 6.125 3.625 6.125 1 6 C0.34 5.34 -0.32 4.68 -1 4 C-0.625 1.875 -0.625 1.875 0 0 Z " fill="#F2A84D" transform="translate(102,126)"/>
<path d="M0 0 C0.99 0.33 1.98 0.66 3 1 C0.66666667 3.33333333 -1.66666667 5.66666667 -4 8 C-4.99 7.67 -5.98 7.34 -7 7 C-4.69 4.69 -2.38 2.38 0 0 Z " fill="#385592" transform="translate(193,76)"/>
<path d="M0 0 C0 3.3 0 6.6 0 10 C-0.99 9.67 -1.98 9.34 -3 9 C-2.67 7.02 -2.34 5.04 -2 3 C-3.32 2.67 -4.64 2.34 -6 2 C-1.125 0 -1.125 0 0 0 Z " fill="#969DA2" transform="translate(339,168)"/>
<path d="M0 0 C0.33 0 0.66 0 1 0 C1.33 3.63 1.66 7.26 2 11 C3.32 11.33 4.64 11.66 6 12 C6 12.66 6 13.32 6 14 C4.02 14 2.04 14 0 14 C0 9.38 0 4.76 0 0 Z " fill="#909EA2" transform="translate(361,164)"/>
<path d="M0 0 C1.65 0.33 3.3 0.66 5 1 C5 2.65 5 4.3 5 6 C3.68 5.67 2.36 5.34 1 5 C0.67 5.66 0.34 6.32 0 7 C-0.66 5.68 -1.32 4.36 -2 3 C-1.34 3 -0.68 3 0 3 C0 2.01 0 1.02 0 0 Z " fill="#F1F7F6" transform="translate(459,130)"/>
<path d="M0 0 C-0.33 2.97 -0.66 5.94 -1 9 C-1.33 8.01 -1.66 7.02 -2 6 C-2.99 6.33 -3.98 6.66 -5 7 C-4.625 4.0625 -4.625 4.0625 -4 1 C-2 0 -2 0 0 0 Z " fill="#284D84" transform="translate(161,115)"/>
<path d="M0 0 C0.33 0 0.66 0 1 0 C1 3.63 1 7.26 1 11 C0.01 11 -0.98 11 -2 11 C-1.85892253 9.54119891 -1.71197585 8.08296449 -1.5625 6.625 C-1.48128906 5.81289062 -1.40007812 5.00078125 -1.31640625 4.1640625 C-1 2 -1 2 0 0 Z " fill="#929BA0" transform="translate(512,164)"/>
<path d="M0 0 C0.66 0.99 1.32 1.98 2 3 C5.06556598 3.73343428 5.06556598 3.73343428 8 4 C8 4.33 8 4.66 8 5 C4.04 5 0.08 5 -4 5 C-2.68 3.35 -1.36 1.7 0 0 Z " fill="#153F7E" transform="translate(391,136)"/>
<path d="M0 0 C1.32 0.66 2.64 1.32 4 2 C4 2.99 4 3.98 4 5 C3.01 5.33 2.02 5.66 1 6 C0.34 6.66 -0.32 7.32 -1 8 C-0.67 5.36 -0.34 2.72 0 0 Z " fill="#435F98" transform="translate(172,87)"/>
<path d="M0 0 C2.64 0.99 5.28 1.98 8 3 C8 3.66 8 4.32 8 5 C5.125 5.125 5.125 5.125 2 5 C1.34 4.34 0.68 3.68 0 3 C0 2.01 0 1.02 0 0 Z " fill="#99A3A7" transform="translate(276,164)"/>
<path d="M0 0 C2.97 0.33 5.94 0.66 9 1 C9 1.99 9 2.98 9 4 C5.65626525 3.44271087 2.96687001 2.64826111 0 1 C0 0.67 0 0.34 0 0 Z " fill="#A3A9AE" transform="translate(280,158)"/>
<path d="M0 0 C0.33 1.32 0.66 2.64 1 4 C1.66 4 2.32 4 3 4 C2.67 5.98 2.34 7.96 2 10 C1.01 9.67 0.02 9.34 -1 9 C-0.67 6.03 -0.34 3.06 0 0 Z " fill="#304F74" transform="translate(146,110)"/>
<path d="M0 0 C0.99 0.99 1.98 1.98 3 3 C2.85546875 5.91796875 2.85546875 5.91796875 2.1875 9.1875 C1.97480469 10.27417969 1.76210938 11.36085937 1.54296875 12.48046875 C1.36378906 13.31191406 1.18460937 14.14335937 1 15 C0.67 15 0.34 15 0 15 C0 10.05 0 5.1 0 0 Z " fill="#939C9E" transform="translate(479,163)"/>
<path d="M0 0 C0.33 0 0.66 0 1 0 C1.3125 3.25 1.3125 3.25 1 7 C-1.5 9.4375 -1.5 9.4375 -4 11 C-2.7874262 7.27566618 -1.49140021 3.62197194 0 0 Z " fill="#35558A" transform="translate(408,92)"/>
<path d="M0 0 C0 0.99 0 1.98 0 3 C-2.64 3 -5.28 3 -8 3 C-8.33 2.34 -8.66 1.68 -9 1 C-6.04335481 -0.4783226 -3.25770263 -0.06032783 0 0 Z " fill="#B5BABD" transform="translate(337,169)"/>
<path d="M0 0 C0.99 0.495 0.99 0.495 2 1 C2.73075648 3.3140622 3.40138258 5.64828869 4 8 C3.01 8 2.02 8 1 8 C-0.35439668 5.29120665 -0.06501451 2.99066732 0 0 Z " fill="#1A3B77" transform="translate(277,96)"/>
<path d="M0 0 C1.32 0 2.64 0 4 0 C4.33 0.99 4.66 1.98 5 3 C3.68 3.99 2.36 4.98 1 6 C0.4465236 3.92446352 0 2.15634036 0 0 Z " fill="#C3C5C6" transform="translate(468,157)"/>
<path d="M0 0 C0.77321882 2.98241547 1.41196203 5.97580475 2 9 C0.68 8.34 -0.64 7.68 -2 7 C-1.125 2.25 -1.125 2.25 0 0 Z " fill="#3C5B8F" transform="translate(465,128)"/>
<path d="M0 0 C2.33333333 0 4.66666667 0 7 0 C6 3 6 3 3.9375 4.1875 C3.298125 4.455625 2.65875 4.72375 2 5 C1.34 3.35 0.68 1.7 0 0 Z " fill="#A4AAAE" transform="translate(347,163)"/>
<path d="M0 0 C2.475 0.495 2.475 0.495 5 1 C5 1.66 5 2.32 5 3 C5.66 3 6.32 3 7 3 C7 3.66 7 4.32 7 5 C4.11424181 4.60196439 3.17810487 4.20990931 1.25 1.9375 C0.8375 1.298125 0.425 0.65875 0 0 Z " fill="#DBA04C" transform="translate(131,151)"/>
<path d="M0 0 C1.32 0.99 2.64 1.98 4 3 C0.25 6 0.25 6 -2 6 C-1.34 4.02 -0.68 2.04 0 0 Z " fill="#2C4F87" transform="translate(279,122)"/>
<path d="M0 0 C0.33 0.99 0.66 1.98 1 3 C-0.65 4.65 -2.3 6.3 -4 8 C-3.50168276 4.31245243 -2.89932357 2.39509338 0 0 Z " fill="#1B3C79" transform="translate(407,100)"/>
</svg>
