<?xml version="1.0" encoding="UTF-8"?>
<svg version="1.1" xmlns="http://www.w3.org/2000/svg" width="1024" height="1024">
<path d="M0 0 C337.92 0 675.84 0 1024 0 C1024 337.92 1024 675.84 1024 1024 C686.08 1024 348.16 1024 0 1024 C0 686.08 0 348.16 0 0 Z " fill="#FDFEFE" transform="translate(0,0)"/>
<path d="M0 0 C1.29238296 0.6171137 2.58537629 1.2329504 3.87890625 1.84765625 C21.2015604 10.17359796 35.93423687 20.88401509 50 34 C51.10988281 35.02867187 51.10988281 35.02867187 52.2421875 36.078125 C82.20519142 64.86819994 99.79693571 107.34744065 101.23828125 148.6015625 C102.08728303 194.75360501 85.80720488 238.48328737 54 272 C53.55430664 272.4729248 53.10861328 272.94584961 52.64941406 273.43310547 C33.87135469 293.23577412 10.56189043 306.74802311 -15 316 C-15.62841797 316.22816406 -16.25683594 316.45632813 -16.90429688 316.69140625 C-27.72074466 320.53481409 -38.62196892 322.60386329 -50 324 C-50.77770752 324.09571289 -51.55541504 324.19142578 -52.35668945 324.29003906 C-94.81998305 329.03891527 -139.64358993 317.24570589 -173.51171875 290.8125 C-174.6771505 289.87832288 -175.83989468 288.94078354 -177 288 C-177.59893066 287.51917969 -178.19786133 287.03835938 -178.81494141 286.54296875 C-203.73594303 266.37737576 -220.44632871 240.6379806 -232 211 C-232.41121094 209.96617187 -232.82242187 208.93234375 -233.24609375 207.8671875 C-247.65155307 168.51842313 -243.33857707 121.45620525 -226.12109375 83.8046875 C-219.45858057 69.79014282 -211.29464237 56.63294587 -201 45 C-200.35611328 44.26571777 -200.35611328 44.26571777 -199.69921875 43.51660156 C-175.09848015 15.56605057 -141.16746478 -6.02899627 -103.90625 -11.640625 C-101.99698903 -11.81505533 -101.99698903 -11.81505533 -101 -13 C-67.56463134 -18.7329731 -30.51425743 -15.13479206 0 0 Z " fill="#FAFAF8" transform="translate(581,262)"/>
<path d="M0 0 C2.39753284 2.12583693 4.7331358 4.29942082 7.05078125 6.51171875 C7.69789063 7.09566406 8.345 7.67960937 9.01171875 8.28125 C32.82648613 30.58936883 49.08629092 66.09339239 50.24365234 98.67260742 C50.27620246 100.09151491 50.30285959 101.51056744 50.32421875 102.9296875 C50.33679214 103.70111084 50.34936554 104.47253418 50.36231995 105.26733398 C50.58582977 122.26218894 50.43127053 138.2057818 45.05078125 154.51171875 C44.79377441 155.32543945 44.53676758 156.13916016 44.27197266 156.97753906 C31.7552378 195.99532886 4.44359752 227.65898489 -31.82568359 246.46240234 C-35.51658042 248.28620949 -39.2744134 249.92919018 -43.07421875 251.51171875 C-43.77264893 251.80264404 -44.4710791 252.09356934 -45.19067383 252.39331055 C-49.21918503 254.00344682 -52.58881666 254.78498507 -56.94921875 255.51171875 C-56.94921875 234.06171875 -56.94921875 212.61171875 -56.94921875 190.51171875 C-32.82421875 190.19921875 -32.82421875 190.19921875 -25.23779297 190.1237793 C-23.24314514 190.09148019 -21.24851432 190.05810517 -19.25390625 190.0234375 C-18.226604 190.0171936 -17.19930176 190.01094971 -16.14086914 190.0045166 C-10.68181193 189.89501691 -6.63881603 189.62604408 -1.94921875 186.51171875 C3.80890035 180.43370415 4.35037375 174.95598672 4.36962891 166.94799805 C4.37967453 165.991418 4.38972015 165.03483795 4.40007019 164.04927063 C4.43090309 160.89483223 4.44793778 157.74047872 4.46484375 154.5859375 C4.48355529 152.39589203 4.50312869 150.20585376 4.52352905 148.01582336 C4.5748576 142.25703176 4.61447958 136.49821678 4.65167236 130.73931885 C4.69170737 124.86065891 4.74280204 118.98209628 4.79296875 113.10351562 C4.88973666 101.57298501 4.9741388 90.04239947 5.05078125 78.51171875 C6.86442895 79.48875796 8.67666942 80.4684098 10.48828125 81.44921875 C12.00228516 82.26712891 12.00228516 82.26712891 13.546875 83.1015625 C16.05078125 84.51171875 16.05078125 84.51171875 17.05078125 85.51171875 C20.57449217 85.90324219 22.42694576 85.92213683 25.42578125 83.94921875 C27.22817068 81.51177213 27.22817068 81.51177213 27.98828125 78.26171875 C25.26266982 67.35927302 2.46435468 57.49507014 -6.57421875 51.57421875 C-9.62916247 49.570658 -12.68359473 47.56632671 -15.7371521 45.56065369 C-17.62707363 44.319526 -19.51785657 43.07970883 -21.40957642 41.84132385 C-22.25490936 41.28661911 -23.10024231 40.73191437 -23.97119141 40.16040039 C-24.71744781 39.67156876 -25.46370422 39.18273712 -26.23257446 38.67909241 C-27.94921875 37.51171875 -27.94921875 37.51171875 -28.94921875 36.51171875 C-29.03769618 33.99077799 -29.06449176 31.49740982 -29.046875 28.9765625 C-29.04475258 27.84668663 -29.04475258 27.84668663 -29.04258728 26.69398499 C-29.03697251 24.27902315 -29.02441758 21.86415274 -29.01171875 19.44921875 C-29.00670565 17.81575654 -29.00214241 16.18229289 -28.99804688 14.54882812 C-28.9878475 10.53639445 -28.9682752 6.52415939 -28.94921875 2.51171875 C-36.53921875 2.51171875 -44.12921875 2.51171875 -51.94921875 2.51171875 C-51.94921875 8.45171875 -51.94921875 14.39171875 -51.94921875 20.51171875 C-61.02079626 15.78051053 -69.35941607 9.98167393 -77.82421875 4.26171875 C-80.79812405 2.25252858 -83.77505979 0.24794851 -86.75390625 -1.75390625 C-87.43202362 -2.21428284 -88.11014099 -2.67465942 -88.80880737 -3.14898682 C-94.06510434 -6.68068317 -98.54885618 -8.72917476 -104.94921875 -7.48828125 C-107.17056558 -6.39211775 -107.17056558 -6.39211775 -109.4609375 -4.8125 C-110.9147583 -3.85512939 -110.9147583 -3.85512939 -112.39794922 -2.87841797 C-113.58227367 -2.08255022 -114.76597323 -1.28575219 -115.94921875 -0.48828125 C-117.42854535 0.50244563 -118.90787499 1.49316796 -120.38720703 2.48388672 C-124.74643498 5.41008017 -129.09649095 8.34967969 -133.44445801 11.29257202 C-138.23664437 14.53579559 -143.03229198 17.77389092 -147.828125 21.01171875 C-148.78069183 21.65489548 -149.73325867 22.2980722 -150.71469116 22.96073914 C-162.32156662 30.79362247 -173.97420857 38.55729519 -185.63598633 46.30810547 C-189.28281084 48.73358908 -192.92674718 51.16337482 -196.5703125 53.59375 C-201.02156025 56.56279882 -205.47637151 59.52627283 -209.9375 62.48046875 C-211.27264648 63.36605469 -211.27264648 63.36605469 -212.63476562 64.26953125 C-214.4357314 65.4639264 -216.23787617 66.65654516 -218.04101562 67.84765625 C-218.91435547 68.42773438 -219.78769531 69.0078125 -220.6875 69.60546875 C-221.8482605 70.37407227 -221.8482605 70.37407227 -223.0324707 71.15820312 C-225.05775786 72.50710484 -225.05775786 72.50710484 -226.94921875 74.51171875 C-227.38033214 78.39173929 -227.48095647 80.66093839 -225.38671875 84.01171875 C-222.97307168 85.77166759 -222.97307168 85.77166759 -219.76171875 85.63671875 C-215.43718229 84.36062602 -212.47812496 82.43045393 -208.8671875 79.7890625 C-206.94921875 78.51171875 -206.94921875 78.51171875 -204.94921875 78.51171875 C-204.94375031 80.32669861 -204.94375031 80.32669861 -204.93817139 82.17834473 C-204.9011887 93.59574151 -204.8433799 105.01286939 -204.76531601 116.43006134 C-204.72585058 122.29941405 -204.69365733 128.16861694 -204.67822266 134.03808594 C-204.66305021 139.7052105 -204.62859345 145.37192314 -204.58090973 151.03886414 C-204.56610214 153.1980989 -204.5581781 155.35739248 -204.5573349 157.51667786 C-204.5549617 160.5473697 -204.5278525 163.57692643 -204.49511719 166.60742188 C-204.50014755 167.49503204 -204.50517792 168.38264221 -204.51036072 169.29714966 C-204.41297661 175.14590613 -203.26135764 179.62807337 -199.94921875 184.51171875 C-195.97055489 188.20619234 -193.4911131 189.62279096 -188.13232422 189.71704102 C-187.1174292 189.7372229 -186.10253418 189.75740479 -185.05688477 189.77819824 C-183.98752686 189.79467407 -182.91816895 189.8111499 -181.81640625 189.828125 C-180.83551025 189.84677612 -179.85461426 189.86542725 -178.84399414 189.88464355 C-175.17082954 189.95307442 -171.49751292 190.01313799 -167.82421875 190.07421875 C-159.61546875 190.21859375 -151.40671875 190.36296875 -142.94921875 190.51171875 C-142.94921875 211.96171875 -142.94921875 233.41171875 -142.94921875 255.51171875 C-150.84460974 254.38380575 -150.84460974 254.38380575 -154.26171875 252.98046875 C-155.39855103 252.51362671 -155.39855103 252.51362671 -156.55834961 252.03735352 C-157.34733643 251.69889404 -158.13632324 251.36043457 -158.94921875 251.01171875 C-159.7801001 250.657146 -160.61098145 250.30257324 -161.46704102 249.93725586 C-178.18560574 242.6101715 -192.70840112 232.03030996 -205.94921875 219.51171875 C-206.69816406 218.815625 -207.44710937 218.11953125 -208.21875 217.40234375 C-227.50793004 198.89013593 -241.69098613 172.96896823 -247.63671875 146.94921875 C-247.95479492 145.62760742 -247.95479492 145.62760742 -248.27929688 144.27929688 C-257.29181207 105.75576977 -248.6563901 64.80118589 -228.19677734 31.43896484 C-205.82292374 -3.12447946 -170.29197598 -25.76391471 -130.58544922 -35.04052734 C-84.27509569 -44.93674365 -35.65363909 -30.08128225 0 0 Z " fill="#393376" transform="translate(610.94921875,304.48828125)"/>
<path d="M0 0 C1.29238296 0.6171137 2.58537629 1.2329504 3.87890625 1.84765625 C21.2015604 10.17359796 35.93423687 20.88401509 50 34 C51.10988281 35.02867187 51.10988281 35.02867187 52.2421875 36.078125 C82.20519142 64.86819994 99.79693571 107.34744065 101.23828125 148.6015625 C102.08728303 194.75360501 85.80720488 238.48328737 54 272 C53.55430664 272.4729248 53.10861328 272.94584961 52.64941406 273.43310547 C33.87135469 293.23577412 10.56189043 306.74802311 -15 316 C-15.62841797 316.22816406 -16.25683594 316.45632813 -16.90429688 316.69140625 C-27.72074466 320.53481409 -38.62196892 322.60386329 -50 324 C-50.77770752 324.09571289 -51.55541504 324.19142578 -52.35668945 324.29003906 C-94.81998305 329.03891527 -139.64358993 317.24570589 -173.51171875 290.8125 C-174.6771505 289.87832288 -175.83989468 288.94078354 -177 288 C-177.59893066 287.51917969 -178.19786133 287.03835938 -178.81494141 286.54296875 C-203.73594303 266.37737576 -220.44632871 240.6379806 -232 211 C-232.41121094 209.96617187 -232.82242187 208.93234375 -233.24609375 207.8671875 C-247.65155307 168.51842313 -243.33857707 121.45620525 -226.12109375 83.8046875 C-219.45858057 69.79014282 -211.29464237 56.63294587 -201 45 C-200.35611328 44.26571777 -200.35611328 44.26571777 -199.69921875 43.51660156 C-175.09848015 15.56605057 -141.16746478 -6.02899627 -103.90625 -11.640625 C-101.99698903 -11.81505533 -101.99698903 -11.81505533 -101 -13 C-67.56463134 -18.7329731 -30.51425743 -15.13479206 0 0 Z M-105 0 C-105.81936035 0.19867676 -106.6387207 0.39735352 -107.48291016 0.60205078 C-133.35164631 7.01281053 -155.60420542 18.92505916 -176 36 C-176.84046875 36.68707031 -177.6809375 37.37414062 -178.546875 38.08203125 C-184.48860349 43.11201175 -189.19682661 48.89936833 -194 55 C-194.66902344 55.79148437 -195.33804688 56.58296875 -196.02734375 57.3984375 C-208.51154527 72.28059456 -217.74963947 90.65064916 -223.375 109.1875 C-223.60147217 109.93346436 -223.82794434 110.67942871 -224.0612793 111.44799805 C-228.0667714 125.52065708 -229.55284099 139.04304752 -229.4375 153.625 C-229.43412628 154.45594177 -229.43075256 155.28688354 -229.42727661 156.14300537 C-229.21405211 192.49233217 -217.12664099 228.30076025 -193 256 C-192.2678125 256.84175781 -191.535625 257.68351562 -190.78125 258.55078125 C-188.55286913 261.06534118 -186.28632353 263.53811949 -184 266 C-183.4225 266.64324219 -182.845 267.28648437 -182.25 267.94921875 C-163.36935575 288.05204756 -136.95427309 301.08119098 -110.6875 308.375 C-109.82930664 308.61379883 -108.97111328 308.85259766 -108.08691406 309.09863281 C-67.24445308 319.80099934 -24.34480264 311.28131362 12 291 C21.80592781 285.03690996 30.78068389 278.00200915 39 270 C40.09736237 268.9762474 41.19504151 267.95283428 42.29296875 266.9296875 C65.20740603 245.21196674 78.7732162 217.40278824 86 187 C86.18111328 186.26749023 86.36222656 185.53498047 86.54882812 184.78027344 C95.5476053 146.94224173 85.72414891 105.42033202 66.25390625 72.5 C44.11443639 37.34970441 8.79564388 10.11293867 -32.01513672 0.78808594 C-55.39785942 -4.29983866 -81.58738279 -5.87294184 -105 0 Z " fill="#E6883B" transform="translate(581,262)"/>
<path d="M0 0 C24.73430408 0 24.73430408 0 32.375 1.5 C33.27710205 1.66943115 34.1792041 1.8388623 35.10864258 2.01342773 C44.3026291 3.94276754 54.61678375 7.75967344 61 15 C64.01014789 13.55677841 66.80014252 11.9008876 69.625 10.125 C86.90563839 -0.18318923 103.70403058 0 124 0 C124 22.11 124 44.22 124 67 C112.615 67.495 112.615 67.495 101 68 C87.8291524 69.89508599 76.58994621 72.76985197 65.9375 80.9609375 C64 82 64 82 62.19921875 81.90234375 C59.64716623 80.85523162 57.24473918 79.58480169 54.82177734 78.26977539 C37.34543604 68.8563342 19.8790823 67.94662297 0 67 C0 44.89 0 22.78 0 0 Z " fill="#E58731" transform="translate(449,380)"/>
<path d="M0 0 C5.99262118 2.3876072 11.33778055 6.04592769 16.65625 9.640625 C17.44398804 10.16767029 18.23172607 10.69471558 19.04333496 11.23773193 C21.53184167 12.90413495 24.01596489 14.57694064 26.5 16.25 C28.19762982 17.3884487 29.89554384 18.52647371 31.59375 19.6640625 C35.73246756 22.43782238 39.86726941 25.2173286 44 28 C44.33 22.39 44.66 16.78 45 11 C52.59 11 60.18 11 68 11 C67.56171875 13.11792969 67.1234375 15.23585938 66.671875 17.41796875 C65.2773957 26.60099867 64.38016252 36.58944112 69 45 C79.04211188 56.64234933 94.70101697 63.89275105 107.98730469 71.17285156 C113.96833635 74.4803512 120.13647546 78.13647546 125 83 C125.50243747 87.3544581 125.48168936 89.33413529 122.875 92.9375 C119.43381919 95.40617319 118.14807313 95.4460845 114 95 C111.31640625 93.6015625 111.31640625 93.6015625 108.5625 91.625 C107.50675781 90.88507813 106.45101562 90.14515625 105.36328125 89.3828125 C104.53304443 88.79161621 104.53304443 88.79161621 103.68603516 88.18847656 C100.91324038 86.23394934 98.07875624 84.37199957 95.25 82.5 C93.94763905 81.63192678 92.64557063 80.76341457 91.34375 79.89453125 C88.30418352 77.86791993 85.26204218 75.84523044 82.21875 73.82421875 C65.84448338 62.94024509 49.54767833 51.94223546 33.25772095 40.93260193 C31.50229437 39.74824153 29.74528583 38.56622233 27.98666382 37.38661194 C23.36174193 34.28332457 18.76653452 31.14549434 14.20458984 27.95019531 C13.25633835 27.29516022 12.30808685 26.64012512 11.33110046 25.96524048 C9.51436343 24.71014953 7.70667735 23.44182296 5.90974426 22.15853882 C1.31028248 18.95716248 1.31028248 18.95716248 -4.04443359 17.76831055 C-8.34996189 19.56257705 -12.01045514 22.01210473 -15.83203125 24.66796875 C-17.11709312 25.54216461 -17.11709312 25.54216461 -18.42811584 26.434021 C-21.22944363 28.34247014 -24.02077592 30.26503659 -26.8125 32.1875 C-28.75391033 33.51298688 -30.69613797 34.83727744 -32.63916016 36.16040039 C-35.58902769 38.16948223 -38.53831062 40.17937026 -41.48492432 42.19322205 C-50.23740967 48.17506248 -59.04519641 54.07063729 -67.875 59.9375 C-69.22543698 60.83628278 -70.57578014 61.73520655 -71.92602539 62.63427734 C-76.69091568 65.80648973 -81.4580588 68.97530702 -86.22558594 72.14355469 C-89.06759314 74.03239923 -91.90904131 75.92207885 -94.75 77.8125 C-95.57991455 78.36446045 -96.4098291 78.9164209 -97.26489258 79.48510742 C-103.06773295 83.35386677 -108.80789602 87.30385217 -114.50390625 91.328125 C-120.03645712 95.03380852 -120.03645712 95.03380852 -124.5625 94.875 C-128 94 -128 94 -129.9375 92.375 C-131.50152277 88.8789491 -131.65412951 86.79395117 -131 83 C-126.8793868 78.34224913 -121.22611645 75.02739506 -116 71.75 C-101.92533494 62.83882153 -88.17487966 53.43013184 -74.37246704 44.10571289 C-59.70936545 34.201861 -45.03229039 24.31943193 -30.3125 14.5 C-29.63221741 14.04564575 -28.95193481 13.5912915 -28.2510376 13.12316895 C-24.17592577 10.40227534 -20.09225933 7.69503851 -16 5 C-15.16903809 4.44707275 -14.33807617 3.89414551 -13.48193359 3.32446289 C-8.65815635 0.18706931 -5.63415425 -1.05548214 0 0 Z " fill="#E88F3A" transform="translate(514,296)"/>
<path d="M0 0 C6.414375 -0.061875 12.82875 -0.12375 19.4375 -0.1875 C21.44384521 -0.21481201 23.45019043 -0.24212402 25.51733398 -0.27026367 C27.13524781 -0.27903821 28.75316835 -0.28667985 30.37109375 -0.29296875 C31.59753601 -0.3159906 31.59753601 -0.3159906 32.84875488 -0.33947754 C42.79816746 -0.3439252 51.59106984 3.0463305 58.94921875 9.78515625 C66.49598615 17.74327785 67.60255283 25.56029875 67.34375 36.34375 C66.5150752 45.15783654 62.72767105 52.23518829 56 58 C47.47123753 63.61650212 40.78056848 65.15881433 30.76171875 65.09765625 C29.98042603 65.09664917 29.1991333 65.09564209 28.39416504 65.09460449 C25.4919283 65.08939553 22.58971259 65.07543433 19.6875 65.0625 C13.190625 65.041875 6.69375 65.02125 0 65 C0 43.55 0 22.1 0 0 Z " fill="#F29D40" transform="translate(282,606)"/>
<path d="M0 0 C6.08327321 3.65253614 11.05648076 9.44015104 13.1875 16.24609375 C14.91040786 25.12214585 13.89268268 33.50596312 9.625 41.5 C5.78196341 46.82187599 1.12532653 50.31326275 -5.375 51.5 C-12.96280905 52.16021378 -17.41388204 51.98055898 -24.375 48.5 C-24.705 55.1 -25.035 61.7 -25.375 68.5 C-31.315 68.5 -37.255 68.5 -43.375 68.5 C-43.375 45.73 -43.375 22.96 -43.375 -0.5 C-37.765 -0.5 -32.155 -0.5 -26.375 -0.5 C-26.045 0.82 -25.715 2.14 -25.375 3.5 C-24.611875 2.860625 -23.84875 2.22125 -23.0625 1.5625 C-16.97532758 -3.10905092 -6.93585389 -3.09320006 0 0 Z " fill="#CD6634" transform="translate(726.375,620.5)"/>
<path d="M0 0 C5.81297464 4.11161621 11.26024991 8.87862295 13 16 C13.97251479 25.65729799 13.23838227 32.9952274 7.9375 41.1875 C3.30959499 46.36735698 -4.62705994 49.73200249 -11.44140625 50.2734375 C-21.75942178 50.63157103 -28.90117654 49.44790983 -36.9375 42.4375 C-37.618125 41.633125 -38.29875 40.82875 -39 40 C-39.8353125 39.0409375 -39.8353125 39.0409375 -40.6875 38.0625 C-44.96346518 31.34312615 -44.69427312 23.67215735 -44 16 C-42.12270761 8.97420512 -36.94534409 3.71292423 -31.07421875 -0.32421875 C-22.21497579 -5.07917966 -8.79562163 -4.99030525 0 0 Z " fill="#EB8D38" transform="translate(463,622)"/>
<path d="M0 0 C5.73024369 6.22140744 9.5799026 13.25246362 9.46875 21.76953125 C8.66940033 29.17461777 5.70862095 36.33397653 0.1875 41.375 C-9.01724573 46.86791331 -17.07249842 48.53850017 -27.8125 47.375 C-36.27407283 44.63282362 -42.45871234 40.2987399 -46.83203125 32.57421875 C-49.79908487 26.03044297 -50.06790693 18.46088459 -47.96875 11.62890625 C-44.61429531 4.18337675 -39.54307497 -0.26484033 -32.75 -4.5625 C-21.87747761 -8.54328623 -9.6430267 -5.57152654 0 0 Z " fill="#332D6B" transform="translate(565.8125,706.625)"/>
<path d="M0 0 C5.57253958 3.62640457 9.74459361 8.40211308 11.9375 14.75 C12.83627511 22.93762202 12.44278978 30.67198441 7.9375 37.75 C1.99335279 44.59336005 -3.79943682 48.26196042 -12.76953125 49.09375 C-21.07715479 49.52163165 -28.25990177 48.98557113 -35.0625 43.75 C-41.34806029 38.06963724 -44.62264334 33.27658609 -45.3046875 24.70703125 C-45.66633829 15.4636625 -44.06234261 9.90757307 -38 3 C-27.8647492 -6.40361911 -11.57240722 -7.12879295 0 0 Z " fill="#F0963C" transform="translate(401.0625,623.25)"/>
<path d="M0 0 C4.06944641 1.62777856 6.76750153 3.06531921 10.25 5.5625 C11.55710937 6.49255859 11.55710937 6.49255859 12.890625 7.44140625 C15 9 15 9 16 10 C16.11637859 12.57426539 16.16800009 15.12206719 16.17700195 17.69750977 C16.18685875 18.90740318 16.18685875 18.90740318 16.19691467 20.14173889 C16.21670602 22.8249622 16.22832671 25.50812924 16.23828125 28.19140625 C16.24235678 29.10723921 16.2464323 30.02307217 16.25063133 30.96665764 C16.27152267 35.81932222 16.28580782 40.67195832 16.29516602 45.5246582 C16.30620221 50.52932117 16.3405609 55.53353603 16.38033772 60.53804111 C16.4065432 64.3909129 16.41486163 68.24367894 16.41844749 72.096632 C16.42330783 73.94054102 16.43490602 75.78444548 16.45348549 77.62826729 C16.4779478 80.21810891 16.47689857 82.80680568 16.4699707 85.39672852 C16.48278076 86.1518573 16.49559082 86.90698608 16.50878906 87.68499756 C16.44987513 93.7627024 14.76472436 99.07692214 10.51721668 103.56771183 C6.47411181 107.07352859 3.40038525 108.12699328 -1.83862305 108.11352539 C-3.30980843 108.11341209 -3.30980843 108.11341209 -4.81071472 108.11329651 C-5.86704605 108.10813522 -6.92337738 108.10297394 -8.01171875 108.09765625 C-9.09508011 108.0962413 -10.17844147 108.09482635 -11.29463196 108.09336853 C-14.75894925 108.08776559 -18.2232022 108.07521258 -21.6875 108.0625 C-24.03450428 108.05748538 -26.38150956 108.05292241 -28.72851562 108.04882812 C-34.48570192 108.0377952 -40.24284005 108.02052858 -46 108 C-46 103.05 -46 98.1 -46 93 C-23.23 92.505 -23.23 92.505 0 92 C0 61.64 0 31.28 0 0 Z " fill="#D86D2B" transform="translate(600,387)"/>
<path d="M0 0 C0.33 30.36 0.66 60.72 1 92 C15.85 92.33 30.7 92.66 46 93 C46 97.95 46 102.9 46 108 C38.98913679 108.09901273 31.97868227 108.17153827 24.96728516 108.21972656 C22.58309843 108.23981893 20.19896085 108.26709781 17.81494141 108.30175781 C14.38431662 108.35037859 10.95434445 108.37299312 7.5234375 108.390625 C6.46071625 108.41127014 5.397995 108.43191528 4.30307007 108.45318604 C-1.81365768 108.45503297 -5.34850961 108.08940793 -10 104 C-15.19213577 98.37518625 -16.3014086 93.38616759 -16.44921875 85.88012695 C-16.4719989 85.07615982 -16.49477905 84.27219269 -16.51824951 83.44386292 C-16.73906797 75.05895646 -16.83430953 66.67064568 -16.91992188 58.28344727 C-16.96447316 54.31000938 -17.04798999 50.34033039 -17.16601562 46.3684082 C-17.3086532 41.55755261 -17.38163979 36.75022947 -17.40615845 31.93736839 C-17.42688098 30.11145096 -17.47155093 28.28563225 -17.54135132 26.46093178 C-18.04456432 12.58936567 -18.04456432 12.58936567 -14.5881958 8.2120018 C-10.8904004 4.75043255 -5.24227266 0 0 0 Z " fill="#E78C34" transform="translate(422,387)"/>
<path d="M0 0 C6.26445562 4.06049636 11.26593034 10.25452482 13.25390625 17.4609375 C13.25390625 21.0909375 13.25390625 24.7209375 13.25390625 28.4609375 C1.04390625 28.4609375 -11.16609375 28.4609375 -23.74609375 28.4609375 C-21.24552782 33.43715493 -21.24552782 33.43715493 -17.74609375 35.4609375 C-14.94464921 35.81692914 -14.94464921 35.81692914 -11.87109375 35.7734375 C-10.84242188 35.79019531 -9.81375 35.80695312 -8.75390625 35.82421875 C-5.37744196 35.41641202 -3.55324649 34.31444079 -0.74609375 32.4609375 C1.25390625 32.4609375 1.25390625 32.4609375 2.98046875 34.0703125 C3.60695313 34.77671875 4.2334375 35.483125 4.87890625 36.2109375 C5.51054688 36.90703125 6.1421875 37.603125 6.79296875 38.3203125 C8.25390625 40.4609375 8.25390625 40.4609375 8.25390625 44.4609375 C6.86313324 45.28206927 5.46601732 46.09246245 4.06640625 46.8984375 C3.28910156 47.35089844 2.51179687 47.80335938 1.7109375 48.26953125 C-5.83137337 51.92677261 -16.30003802 51.8755916 -24.18359375 49.3671875 C-31.86815167 45.75544528 -38.18358539 40.84980694 -41.2734375 32.671875 C-42.88884175 25.11552122 -42.96239321 16.99529332 -39.01171875 10.20703125 C-38.5940625 9.63082031 -38.17640625 9.05460938 -37.74609375 8.4609375 C-37.15054688 7.63335938 -36.555 6.80578125 -35.94140625 5.953125 C-27.05134392 -4.13915216 -11.80506663 -5.48439669 0 0 Z " fill="#D97335" transform="translate(660.74609375,621.5390625)"/>
<path d="M0 0 C5.94 0 11.88 0 18 0 C18.06058594 2.20300781 18.12117188 4.40601563 18.18359375 6.67578125 C18.24541059 8.81049946 18.30878689 10.94516608 18.37231445 13.07983398 C18.4156133 14.56286015 18.45729199 16.04593454 18.49731445 17.52905273 C18.55513958 19.66144339 18.61879832 21.79359242 18.68359375 23.92578125 C18.72025146 25.20880127 18.75690918 26.49182129 18.79467773 27.8137207 C18.86561234 31.02111551 18.86561234 31.02111551 20 34 C23.19491759 35.59745879 26.53209389 35.50816842 30 35 C32.96858157 32.79259319 33.82865791 31.51402627 35 28 C35.15070797 25.86338742 35.2485966 23.72287876 35.31640625 21.58203125 C35.37924805 19.70161133 35.37924805 19.70161133 35.44335938 17.78320312 C35.48267578 16.47287109 35.52199219 15.16253906 35.5625 13.8125 C35.60570992 12.47720022 35.649325 11.14191348 35.69335938 9.80664062 C35.79956434 6.53788766 35.90029785 3.26895777 36 0 C41.94 0 47.88 0 54 0 C54 16.83 54 33.66 54 51 C48.39 51 42.78 51 37 51 C37 49.35 37 47.7 37 46 C36.45730469 46.34933594 35.91460937 46.69867187 35.35546875 47.05859375 C34.64003906 47.51363281 33.92460937 47.96867188 33.1875 48.4375 C32.12595703 49.11619141 32.12595703 49.11619141 31.04296875 49.80859375 C25.76398355 52.88716065 19.92401289 52.66823466 14 52 C8.79116688 49.97853658 5.09307653 46.63961479 2 42 C1.6405127 41.46922852 1.28102539 40.93845703 0.91064453 40.39160156 C-0.47258824 36.75885404 -0.24410894 33.12851422 -0.1953125 29.296875 C-0.1924826 28.45908508 -0.18965271 27.62129517 -0.18673706 26.75811768 C-0.17556349 24.08859837 -0.15046421 21.4194175 -0.125 18.75 C-0.11496654 16.93750485 -0.10584133 15.12500444 -0.09765625 13.3125 C-0.07733695 8.87476546 -0.03818341 4.43776052 0 0 Z " fill="#37326F" transform="translate(413,702)"/>
<path d="M0 0 C19.14 0 38.28 0 58 0 C58 4.95 58 9.9 58 15 C51.4 15 44.8 15 38 15 C38 31.5 38 48 38 65 C32.06 65 26.12 65 20 65 C20 48.17 20 31.34 20 14 C13.4 14 6.8 14 0 14 C0 9.38 0 4.76 0 0 Z " fill="#393575" transform="translate(348,688)"/>
<path d="M0 0 C0.495 0.99 0.495 0.99 1 2 C0.00390625 4.6015625 0.00390625 4.6015625 -1.4375 7.625 C-1.91058594 8.62789062 -2.38367188 9.63078125 -2.87109375 10.6640625 C-3.24363281 11.43492187 -3.61617187 12.20578125 -4 13 C-9.75 12.125 -9.75 12.125 -12 11 C-14.2072923 10.92907158 -16.41667452 10.91584975 -18.625 10.9375 C-20.40777344 10.95103516 -20.40777344 10.95103516 -22.2265625 10.96484375 C-23.59941406 10.98224609 -23.59941406 10.98224609 -25 11 C-25.33 12.32 -25.66 13.64 -26 15 C-24.865625 15.15855469 -23.73125 15.31710937 -22.5625 15.48046875 C-5.52951151 18.04617828 -5.52951151 18.04617828 0.66796875 24.82421875 C3.15717615 28.89016749 2.58128904 33.40313958 2 38 C-0.41795425 43.44039706 -4.64273484 46.60734243 -10 49 C-21.16439336 51.4654702 -34.60940537 51.19529731 -45 46 C-44.54554036 44.58208592 -44.08625056 43.16571954 -43.625 41.75 C-43.36976563 40.96109375 -43.11453125 40.1721875 -42.8515625 39.359375 C-42.04826333 37.13372042 -41.10288338 35.09068328 -40 33 C-39.42894531 33.2165625 -38.85789062 33.433125 -38.26953125 33.65625 C-31.15131842 36.10066013 -24.49792775 36.56670384 -17 36 C-16.01 35.505 -16.01 35.505 -15 35 C-15 34.01 -15 33.02 -15 32 C-15.57443848 31.89977539 -16.14887695 31.79955078 -16.74072266 31.69628906 C-19.37163756 31.22873578 -21.99809782 30.73957565 -24.625 30.25 C-25.98044922 30.01410156 -25.98044922 30.01410156 -27.36328125 29.7734375 C-32.82268021 28.73734719 -36.70899375 27.59168087 -41 24 C-43.68272867 19.26051268 -44.75965571 15.41254696 -44 10 C-42.15364833 5.12302059 -39.30467864 1.74144447 -34.875 -1 C-25.22244535 -5.29002429 -9.38944972 -4.94420299 0 0 Z " fill="#322B66" transform="translate(668,704)"/>
<path d="M0 0 C-0.78224743 4.3972938 -2.17154259 7.94559445 -4 12 C-4.59425781 11.855625 -5.18851563 11.71125 -5.80078125 11.5625 C-16.53019069 9.05158286 -16.53019069 9.05158286 -27 11 C-27 11.99 -27 12.98 -27 14 C-22.48317973 15.19312234 -18.05531162 16.1606424 -13.4375 16.875 C-7.48511487 17.93998985 -3.18017649 19.53851041 0.9375 24.1875 C2.90314532 29.3906788 2.67769446 34.10958915 0.8125 39.3125 C-2.89360382 44.80775738 -7.70879127 47.25865341 -14 49 C-17.28269132 49.42651425 -20.50528319 49.4754413 -23.8125 49.4375 C-24.68745117 49.43427734 -25.56240234 49.43105469 -26.46386719 49.42773438 C-33.19953375 49.28288133 -38.95502021 48.10567769 -45 45 C-44.16775145 40.38627259 -42.69939315 36.35931285 -41 32 C-39.845 32.495 -38.69 32.99 -37.5 33.5 C-30.54227945 35.87880334 -23.24964222 35.2401722 -16 35 C-16 33.68 -16 32.36 -16 31 C-16.56920166 30.91024902 -17.13840332 30.82049805 -17.72485352 30.72802734 C-20.34199787 30.30118325 -22.95159622 29.83843086 -25.5625 29.375 C-26.45775391 29.23449219 -27.35300781 29.09398437 -28.27539062 28.94921875 C-34.57910071 27.79469309 -38.71006422 25.84184278 -43 21 C-45.11981688 16.76036624 -44.61661536 11.5923163 -44 7 C-41.43553289 1.90656014 -37.2671464 -0.982795 -32 -3 C-21.51601203 -5.65870918 -9.52872632 -5.24431129 0 0 Z " fill="#E07F37" transform="translate(570,623)"/>
<path d="M0 0 C5.63502442 2.49105422 9.74361052 6.65559065 14 11 C14.77472656 11.556875 15.54945313 12.11375 16.34765625 12.6875 C16.89292969 13.120625 17.43820312 13.55375 18 14 C18.25 16.6875 18.25 16.6875 18 19 C15.92578125 19.80859375 15.92578125 19.80859375 13 20 C10.48106143 18.42012646 8.43856611 16.95094368 6.1875 15.0625 C3.1246875 12.5565625 3.1246875 12.5565625 0 10 C-0.33 17.92 -0.66 25.84 -1 34 C3.29 34 7.58 34 12 34 C10.03912073 37.92175855 8.29119537 39.94122867 5.2109375 42.984375 C4.74765045 43.44483215 4.2843634 43.90528931 3.80703735 44.37969971 C2.33434102 45.84125078 0.85482597 47.29567168 -0.625 48.75 C-1.62806322 49.74302611 -2.63067257 50.73651089 -3.6328125 51.73046875 C-6.08330835 54.15897941 -8.5399667 56.58114675 -11 59 C-17.8247726 55.72432015 -22.35537343 49.65803499 -27.22265625 43.99609375 C-29.60286816 41.32293268 -32.13990839 38.83204444 -34.71484375 36.34765625 C-36 35 -36 35 -36 34 C-31.38 34 -26.76 34 -22 34 C-22 25.75 -22 17.5 -22 9 C-26.72424792 12.64861666 -26.72424792 12.64861666 -31.42260742 16.33032227 C-36.34358911 20.03518019 -36.34358911 20.03518019 -39.98828125 19.83984375 C-40.65214844 19.56269531 -41.31601562 19.28554688 -42 19 C-41.75795901 15.34321857 -41.11471871 14.11578918 -38.48828125 11.46484375 C-37.44001725 10.60957665 -36.38096715 9.76738985 -35.3125 8.9375 C-34.79494141 8.51662109 -34.27738281 8.09574219 -33.74414062 7.66210938 C-32.18664751 6.41107194 -30.59322289 5.20520551 -29 4 C-27.66001953 2.88625 -27.66001953 2.88625 -26.29296875 1.75 C-18.74788494 -2.25972426 -8.22058705 -1.67644476 0 0 Z " fill="#352F6B" transform="translate(523,501)"/>
<path d="M0 0 C5.94 0 11.88 0 18 0 C18 4.29 18 8.58 18 13 C21.96 13 25.92 13 30 13 C30 17.62 30 22.24 30 27 C26.04 27 22.08 27 18 27 C18.14040213 30.29198191 18.28706875 33.58347446 18.4375 36.875 C18.47681641 37.81214844 18.51613281 38.74929688 18.55664062 39.71484375 C18.59853516 40.61074219 18.64042969 41.50664063 18.68359375 42.4296875 C18.72025146 43.25710449 18.75690918 44.08452148 18.79467773 44.93701172 C18.88238327 47.06179429 18.88238327 47.06179429 20 49 C22.97 49 25.94 49 29 49 C32.42857143 57.42857143 32.42857143 57.42857143 32 62 C24.54240215 64.79939859 15.89375333 65.73241238 8.4375 62.375 C3.91016998 59.69107651 1.64442369 55.93327108 0 51 C-0.08239169 49.15389468 -0.10743359 47.30494836 -0.09765625 45.45703125 C-0.09443359 44.38388672 -0.09121094 43.31074219 -0.08789062 42.20507812 C-0.07951172 41.08552734 -0.07113281 39.96597656 -0.0625 38.8125 C-0.05798828 37.68134766 -0.05347656 36.55019531 -0.04882812 35.38476562 C-0.03703498 32.58979073 -0.0205765 29.7949218 0 27 C-2.31 27 -4.62 27 -7 27 C-7 22.71 -7 18.42 -7 14 C-4.69 14 -2.38 14 0 14 C0 9.38 0 4.76 0 0 Z " fill="#36306E" transform="translate(481,690)"/>
<path d="M0 0 C6.27 0 12.54 0 19 0 C19 4.29 19 8.58 19 13 C22.63 13 26.26 13 30 13 C30 17.62 30 22.24 30 27 C26.04 27 22.08 27 18 27 C18.11353223 30.2924348 18.24028336 33.58342332 18.375 36.875 C18.4059375 37.81214844 18.436875 38.74929688 18.46875 39.71484375 C18.50742187 40.61074219 18.54609375 41.50664063 18.5859375 42.4296875 C18.63306885 43.67081299 18.63306885 43.67081299 18.68115234 44.93701172 C18.82599137 47.21986085 18.82599137 47.21986085 21 49 C23.21072977 49.24253813 23.21072977 49.24253813 25.625 49.125 C26.44226563 49.10695313 27.25953125 49.08890625 28.1015625 49.0703125 C28.72804688 49.04710937 29.35453125 49.02390625 30 49 C33.62870159 58.41002278 33.62870159 58.41002278 32 63 C25.61129585 65.12956805 16.73545854 65.16021499 10.30859375 63.1640625 C5.34235761 60.3558303 2.72823007 56.35687548 1 51 C0.54185691 46.81609634 0.61930839 42.7022379 0.75 38.5 C0.76804687 37.39140625 0.78609375 36.2828125 0.8046875 35.140625 C0.8514885 32.42616704 0.91703625 29.71355284 1 27 C-1.64 27 -4.28 27 -7 27 C-7 22.71 -7 18.42 -7 14 C-4.69 14 -2.38 14 0 14 C0 9.38 0 4.76 0 0 Z " fill="#DF7C37" transform="translate(582,608)"/>
<path d="M0 0 C8 1 8 1 9 2 C9.09425595 4.14743549 9.11742648 6.29801026 9.11352539 8.44750977 C9.11364593 9.13157111 9.11376646 9.81563246 9.11389065 10.52042294 C9.11314171 12.74411663 9.10551441 14.96772746 9.09765625 17.19140625 C9.09618677 18.56050577 9.0951661 19.92960586 9.09460449 21.29870605 C9.08935232 26.38664591 9.07539122 31.47457376 9.0625 36.5625 C9.041875 47.926875 9.02125 59.29125 9 71 C-15.42 71.33 -39.84 71.66 -65 72 C-46.74106065 58.30579549 -21.14610953 60 0 60 C0 40.2 0 20.4 0 0 Z " fill="#342E69" transform="translate(579,394)"/>
<path d="M0 0 C0 5.28 0 10.56 0 16 C-1.381875 16.103125 -2.76375 16.20625 -4.1875 16.3125 C-8.13376264 16.75924671 -10.85508192 17.42688521 -14 20 C-16.23069264 23.43441744 -16.30392376 26.47720442 -16.4140625 30.515625 C-16.45273437 31.76601563 -16.49140625 33.01640625 -16.53125 34.3046875 C-16.57765625 36.25761719 -16.57765625 36.25761719 -16.625 38.25 C-16.66367187 39.56742188 -16.70234375 40.88484375 -16.7421875 42.2421875 C-16.83645919 45.49456078 -16.91931849 48.74726121 -17 52 C-22.94 52 -28.88 52 -35 52 C-35 35.17 -35 18.34 -35 1 C-29.06 1 -23.12 1 -17 1 C-16.67 2.32 -16.34 3.64 -16 5 C-15.5153125 4.6390625 -15.030625 4.278125 -14.53125 3.90625 C-13.8609375 3.4421875 -13.190625 2.978125 -12.5 2.5 C-11.8503125 2.0359375 -11.200625 1.571875 -10.53125 1.09375 C-8 0 -8 0 0 0 Z " fill="#E48235" transform="translate(520,619)"/>
<path d="M0 0 C0 5.28 0 10.56 0 16 C-1.546875 16.0825 -3.09375 16.165 -4.6875 16.25 C-9.24750809 16.69566651 -11.77520597 17.56715474 -15 21 C-16.42267862 23.84535725 -16.21971869 26.36218552 -16.31640625 29.5390625 C-16.35830078 30.84101562 -16.40019531 32.14296875 -16.44335938 33.484375 C-16.48317299 34.86458045 -16.52288522 36.24478883 -16.5625 37.625 C-16.60569407 39.01303415 -16.64930865 40.40105528 -16.69335938 41.7890625 C-16.79971934 45.19258129 -16.90038918 48.596277 -17 52 C-22.94 52 -28.88 52 -35 52 C-35 35.17 -35 18.34 -35 1 C-29.39 1 -23.78 1 -18 1 C-17.67 2.65 -17.34 4.3 -17 6 C-16.071875 5.195625 -15.14375 4.39125 -14.1875 3.5625 C-9.44991334 -0.54340844 -6.78585836 0 0 0 Z " fill="#302A66" transform="translate(619,701)"/>
<path d="M0 0 C0 19.8 0 39.6 0 60 C9.57 60 19.14 60 29 60 C34.4372662 60.77095565 38.87629551 61.46228086 44 63 C44.64630371 63.19287598 45.29260742 63.38575195 45.95849609 63.58447266 C52.55213494 65.58373295 58.87852161 67.79484237 65 71 C61.49717623 72.16760792 58.83768417 72.08060028 55.1418457 72.02172852 C54.44890411 72.01212097 53.75596252 72.00251343 53.04202271 71.99261475 C50.75317131 71.95965169 48.4645124 71.91930925 46.17578125 71.87890625 C44.58823829 71.85460249 43.00068823 71.83075906 41.41313171 71.80735779 C37.23570658 71.74454228 33.05840738 71.67546846 28.88110352 71.60510254 C23.86847015 71.52196362 18.85571494 71.44657749 13.84297943 71.36989594 C6.22854291 71.25254501 -1.38567179 71.1253308 -9 71 C-9 48.23 -9 25.46 -9 2 C-3 0 -3 0 0 0 Z " fill="#413C7C" transform="translate(443,394)"/>
<path d="M0 0 C19.36893204 0 19.36893204 0 25 4 C29.17804707 8.28517648 31.29191795 12.25544498 31.4375 18.25 C31.33734976 24.01249091 29.72250531 27.65707714 26 32 C18.45374915 39.07461017 10.46926439 37 0 37 C0 24.79 0 12.58 0 0 Z " fill="#FDF9F5" transform="translate(300,620)"/>
<path d="M0 0 C3.59399219 2.78717761 4.72967128 4.2074319 5.40234375 8.66796875 C5.57409686 13.75873089 5.56605353 18.0518693 2 22 C-0.98799165 24.32399351 -4.29715398 24.47422416 -8.03125 24.390625 C-11.42127675 23.71800064 -12.96848242 21.64712896 -15 19 C-16.45053871 14.64838388 -16.6490053 10.54303712 -16 6 C-12.22802331 -1.03726995 -7.25135827 -1.96286767 0 0 Z " fill="#FDFBF8" transform="translate(453,634)"/>
<path d="M0 0 C3.6578218 2.03993908 5.66946174 3.50419262 8 7 C8.59298783 11.54367302 8.55124808 15.704567 6.75 19.9375 C3.55636032 23.70143248 2.128781 24.85666273 -2.9375 25.5 C-6.41596163 25.37669632 -7.01148339 24.99095988 -9.9375 22.6875 C-13.20899408 18.42464408 -13.38981575 14.72099281 -13.359375 9.515625 C-12.77622918 5.43360426 -10.98140974 3.7684519 -8 1 C-5.13391871 -0.43304064 -3.18699217 -0.30644155 0 0 Z " fill="#FDFCF8" transform="translate(387,633)"/>
<path d="M0 0 C3.95403662 0.26360244 5.65370756 0.86143155 8.75 3.25 C11.87919296 7.94378943 11.43063785 12.76145223 10.75 18.25 C9.51669165 21.44702262 8.63928073 22.06829823 5.75 24.25 C2.65226962 25.32552303 0.00560183 25.72182635 -3.25 25.25 C-6.05665387 23.08653764 -7.674034 21.40193199 -9.25 18.25 C-10.30290309 8.06692301 -10.30290309 8.06692301 -8.16796875 4.3828125 C-6.8125 3.0625 -6.8125 3.0625 -4.25 1.25 C-3.25 0.25 -3.25 0.25 0 0 Z " fill="#F6F6F7" transform="translate(545.25,714.75)"/>
<path d="M0 0 C2.75569447 2.18159145 4.43588747 3.87177494 6 7 C6.37168996 12.57534937 6.22542715 16.21747009 3 21 C0.26211268 23.21990864 -1.51431274 23.92917061 -5 24.4375 C-8.77306522 23.88726132 -10.32400737 22.67599263 -13 20 C-15.53154709 15.76895276 -15.7002436 11.8183429 -15 7 C-11.30166554 0.09644234 -7.56768251 -1.20246423 0 0 Z " fill="#FCF9F6" transform="translate(716,634)"/>
<path d="M0 0 C2.8100346 1.79363911 4.50940468 3.01880935 6 6 C6.36206054 10.41713859 6.51432609 12.94898583 4.5625 16.9375 C1.43211343 19.45707943 -0.77754902 20.02219375 -4.7421875 20.27734375 C-8.67814184 19.79386147 -10.34209159 17.85725154 -13 15 C-14.43304064 12.13391871 -14.30644155 10.18699217 -14 7 C-10.35844697 0.56658964 -7.40203861 -1.06351129 0 0 Z " fill="#3D3879" transform="translate(515,478)"/>
<path d="M0 0 C3.96 0 7.92 0 12 0 C12 4.29 12 8.58 12 13 C8.04 13 4.08 13 0 13 C0 8.71 0 4.42 0 0 Z " fill="#E68E38" transform="translate(514,362)"/>
<path d="M0 0 C3.96 0 7.92 0 12 0 C12 4.29 12 8.58 12 13 C8.04 13 4.08 13 0 13 C0 8.71 0 4.42 0 0 Z " fill="#EB933C" transform="translate(496,362)"/>
<path d="M0 0 C3.96 0 7.92 0 12 0 C12 4.29 12 8.58 12 13 C8.04 13 4.08 13 0 13 C0 8.71 0 4.42 0 0 Z " fill="#EC943B" transform="translate(514,344)"/>
<path d="M0 0 C3.96 0 7.92 0 12 0 C12 4.29 12 8.58 12 13 C8.04 13 4.08 13 0 13 C0 8.71 0 4.42 0 0 Z " fill="#EF9E48" transform="translate(496,344)"/>
<path d="M0 0 C2.8125 1.125 2.8125 1.125 5 3 C5.66 4.98 6.32 6.96 7 9 C0.4 9 -6.2 9 -13 9 C-12 4 -12 4 -9.875 1.6875 C-6.2426172 -0.44455077 -4.15582055 -0.51947757 0 0 Z " fill="#FBF6F3" transform="translate(650,632)"/>
<path d="M0 0 C15.51 0 31.02 0 47 0 C42.50056097 2.24971952 42.50056097 2.24971952 38.88989258 2.21118164 C38.09259232 2.20780289 37.29529205 2.20442413 36.47383118 2.20094299 C35.19707771 2.18075356 35.19707771 2.18075356 33.89453125 2.16015625 C33.01472092 2.15495468 32.13491058 2.14975311 31.22843933 2.14439392 C28.42295719 2.12660076 25.61784232 2.09541358 22.8125 2.0625 C19.9964826 2.03492255 17.1805149 2.01023028 14.36442566 1.99131775 C12.6126799 1.97901615 10.86096234 1.9613699 9.10932922 1.93800354 C7.07285127 1.92112194 5.03605641 1.95525885 3 2 C1.74882705 3.02229844 1.74882705 3.02229844 1.9375 5.1875 C1.958125 6.115625 1.97875 7.04375 2 8 C2.05328888 13.09574902 1.66225068 17.95033854 1 23 C0.67 23 0.34 23 0 23 C0 15.41 0 7.82 0 0 Z " fill="#392A5D" transform="translate(554,495)"/>
<path d="M0 0 C1.98 0.99 1.98 0.99 4 2 C3.01 2.495 3.01 2.495 2 3 C1.67 20.49 1.34 37.98 1 56 C0.67 56 0.34 56 0 56 C0 37.52 0 19.04 0 0 Z " fill="#E07D3A" transform="translate(600,387)"/>
<path d="M0 0 C0.66 0.33 1.32 0.66 2 1 C1.71801758 1.53367187 1.43603516 2.06734375 1.14550781 2.6171875 C-0.15389715 5.07764964 -1.4519554 7.53881993 -2.75 10 C-3.1934375 10.83917969 -3.636875 11.67835938 -4.09375 12.54296875 C-6.79369246 17.66491841 -9.42985454 22.81166899 -12 28 C-13 26 -13 26 -12.50390625 24.14453125 C-4.62359551 4.62359551 -4.62359551 4.62359551 0 0 Z " fill="#EFA44A" transform="translate(373,334)"/>
<path d="M0 0 C0 0.99 0 1.98 0 3 C-1.38277431 3.97805988 -2.77782826 4.94291007 -4.2265625 5.8203125 C-6.16796664 7.11173111 -7.74480288 8.58671404 -9.4375 10.1875 C-12.90961624 13.26435301 -15.41285518 13.8127696 -20 14 C-15.91459423 10.60475015 -11.61710831 7.66633542 -7.1875 4.75 C-6.49462891 4.29109375 -5.80175781 3.8321875 -5.08789062 3.359375 C-3.39333113 2.23745975 -1.69685966 1.11843328 0 0 Z " fill="#E29850" transform="translate(443,338)"/>
<path d="M0 0 C5.61 0 11.22 0 17 0 C17 0.33 17 0.66 17 1 C12.05 1.66 7.1 2.32 2 3 C1.67 7.95 1.34 12.9 1 18 C0.67 18 0.34 18 0 18 C0 12.06 0 6.12 0 0 Z " fill="#D08135" transform="translate(559,307)"/>
<path d="M0 0 C0.66 0.33 1.32 0.66 2 1 C0.35 2.65 -1.3 4.3 -3 6 C-3.66 5.67 -4.32 5.34 -5 5 C-3.35 3.35 -1.7 1.7 0 0 Z M-5 6 C-6.42857653 9.36048572 -8.16054598 11.27725861 -10.9375 13.625 C-11.62714844 14.21539062 -12.31679688 14.80578125 -13.02734375 15.4140625 C-15 17 -15 17 -18 19 C-16.46781315 15.36938333 -14.2816856 13.0136227 -11.5 10.25 C-10.7059375 9.45078125 -9.911875 8.6515625 -9.09375 7.828125 C-7 6 -7 6 -5 6 Z " fill="#F6B465" transform="translate(401,286)"/>
<path d="M0 0 C0.33 0.66 0.66 1.32 1 2 C-0.1804078 4.32504567 -1.40601324 6.52229593 -2.75 8.75 C-3.47552608 9.97302967 -4.19950143 11.19698068 -4.921875 12.421875 C-5.27314453 13.01677734 -5.62441406 13.61167969 -5.98632812 14.22460938 C-7.43528599 16.76237951 -8.72586523 19.37108902 -10 22 C-10.66 22 -11.32 22 -12 22 C-10.3050672 17.29494063 -7.90289284 13.08099027 -5.4375 8.75 C-5.02564453 8.0178125 -4.61378906 7.285625 -4.18945312 6.53125 C-1.13862607 1.13862607 -1.13862607 1.13862607 0 0 Z " fill="#F3AD5C" transform="translate(368,323)"/>
<path d="M0 0 C-0.66 0.66 -1.32 1.32 -2 2 C-1.01 2.66 -0.02 3.32 1 4 C-3.29 4 -7.58 4 -12 4 C-4.51612903 -1.61290323 -4.51612903 -1.61290323 0 0 Z " fill="#62618A" transform="translate(526,462)"/>
<path d="M0 0 C0.33 0.66 0.66 1.32 1 2 C-2.42388092 5.82669043 -5.00724943 7.72278474 -10 9 C-10 9.66 -10 10.32 -10 11 C-10.66 10.67 -11.32 10.34 -12 10 C-10.68374806 6.05124418 -8.94634602 5.45007287 -5.4375 3.3125 C-4.42558594 2.68988281 -3.41367187 2.06726563 -2.37109375 1.42578125 C-1.58863281 0.95527344 -0.80617188 0.48476563 0 0 Z " fill="#E69D52" transform="translate(404,364)"/>
<path d="M0 0 C0.71484375 1.703125 0.71484375 1.703125 1 4 C-0.43359375 6.359375 -0.43359375 6.359375 -2.4375 8.75 C-3.42556641 9.94882812 -3.42556641 9.94882812 -4.43359375 11.171875 C-4.95050781 11.77515625 -5.46742188 12.3784375 -6 13 C-6.66 12.67 -7.32 12.34 -8 12 C-6.85573734 10.186508 -5.70954608 8.37423275 -4.5625 6.5625 C-3.60537109 5.04849609 -3.60537109 5.04849609 -2.62890625 3.50390625 C-1 1 -1 1 0 0 Z " fill="#4B488F" transform="translate(390,326)"/>
<path d="M0 0 C0.33 0.99 0.66 1.98 1 3 C-2.96 6.96 -6.92 10.92 -11 15 C-11 12 -11 12 -9.609375 10.3515625 C-8.99578125 9.78179688 -8.3821875 9.21203125 -7.75 8.625 C-4.9065733 5.9084605 -2.38050263 3.14226347 0 0 Z " fill="#D8713B" transform="translate(637,513)"/>
<path d="M0 0 C0.99 0.66 1.98 1.32 3 2 C1.84826645 4.46800047 0.95216435 6.04783565 -1 8 C-1.99 8 -2.98 8 -4 8 C-2.66666667 5.33333333 -1.33333333 2.66666667 0 0 Z " fill="#F08B2F" transform="translate(405,658)"/>
<path d="M0 0 C0.99 0.33 1.98 0.66 3 1 C1.92643323 2.15498897 0.84070212 3.29867867 -0.25 4.4375 C-0.85328125 5.07558594 -1.4565625 5.71367188 -2.078125 6.37109375 C-4.10048016 8.08516306 -5.41270605 8.59358878 -8 9 C-7.04270084 7.87411986 -6.08412105 6.7493285 -5.125 5.625 C-4.59132813 4.99851562 -4.05765625 4.37203125 -3.5078125 3.7265625 C-2.38567993 2.44163349 -1.20628025 1.20628025 0 0 Z " fill="#D66D37" transform="translate(622,529)"/>
<path d="M0 0 C0 3 0 3 -2.5 5.6875 C-3.325 6.450625 -4.15 7.21375 -5 8 C-5.99 7.67 -6.98 7.34 -8 7 C-5.36 4.69 -2.72 2.38 0 0 Z " fill="#3C3775" transform="translate(529,705)"/>
<path d="M0 0 C0.66 0.33 1.32 0.66 2 1 C0.6062718 5.43458973 -1.60582235 7.87378374 -5 11 C-5 10.01 -5 9.02 -5 8 C-4.34 8 -3.68 8 -3 8 C-2.87625 6.865625 -2.7525 5.73125 -2.625 4.5625 C-2.41875 3.386875 -2.2125 2.21125 -2 1 C-1.34 0.67 -0.68 0.34 0 0 Z " fill="#2E235B" transform="translate(638,492)"/>
<path d="M0 0 C0.99 0.33 1.98 0.66 3 1 C1.73299277 1.9841125 0.4612381 2.96211497 -0.8125 3.9375 C-1.87404297 4.75541016 -1.87404297 4.75541016 -2.95703125 5.58984375 C-5 7 -5 7 -8 8 C-8.33 7.34 -8.66 6.68 -9 6 C-7.35 5.67 -5.7 5.34 -4 5 C-3.67 4.01 -3.34 3.02 -3 2 C-2.01 1.34 -1.02 0.68 0 0 Z " fill="#ECA04E" transform="translate(402,382)"/>
<path d="M0 0 C0.66 0.33 1.32 0.66 2 1 C-0.31 5.29 -2.62 9.58 -5 14 C-6.12837492 9.48650033 -5.87706931 9.07631749 -3.625 5.3125 C-3.16351563 4.52488281 -2.70203125 3.73726563 -2.2265625 2.92578125 C-1 1 -1 1 0 0 Z " fill="#F1B163" transform="translate(373,334)"/>
<path d="M0 0 C0.66 0.33 1.32 0.66 2 1 C-1.3 4.63 -4.6 8.26 -8 12 C-8.33 11.34 -8.66 10.68 -9 10 C-7.8758824 8.70756532 -6.75067408 7.41607925 -5.625 6.125 C-4.99851562 5.40570313 -4.37203125 4.68640625 -3.7265625 3.9453125 C-2.52573166 2.5923402 -1.2791655 1.2791655 0 0 Z " fill="#F3B05B" transform="translate(394,307)"/>
<path d="M0 0 C0.99 0 1.98 0 3 0 C2.39816251 2.02045442 1.72693904 4.02111039 1 6 C0.01 6.495 0.01 6.495 -1 7 C-1.625 4.625 -1.625 4.625 -2 2 C-1.34 1.34 -0.68 0.68 0 0 Z " fill="#2E255C" transform="translate(642,484)"/>
<path d="M0 0 C0.93045933 2.55144824 1.08564091 3.74006478 0.22265625 6.359375 C-0.16019531 7.14828125 -0.54304687 7.9371875 -0.9375 8.75 C-1.50791016 9.94882812 -1.50791016 9.94882812 -2.08984375 11.171875 C-2.39019531 11.77515625 -2.69054687 12.3784375 -3 13 C-3.93045933 10.44855176 -4.08564091 9.25993522 -3.22265625 6.640625 C-2.83980469 5.85171875 -2.45695313 5.0628125 -2.0625 4.25 C-1.68222656 3.45078125 -1.30195312 2.6515625 -0.91015625 1.828125 C-0.60980469 1.22484375 -0.30945313 0.6215625 0 0 Z " fill="#D56C31" transform="translate(673,465)"/>
<path d="M0 0 C1.98 0.99 1.98 0.99 4 2 C3.01 2.495 3.01 2.495 2 3 C1.53101037 5.8159849 1.53101037 5.8159849 1.375 9.0625 C1.30023437 10.16722656 1.22546875 11.27195312 1.1484375 12.41015625 C1.09945312 13.26480469 1.05046875 14.11945313 1 15 C0.67 15 0.34 15 0 15 C0 10.05 0 5.1 0 0 Z " fill="#E2874B" transform="translate(600,387)"/>
<path d="M0 0 C0.66 0.99 1.32 1.98 2 3 C1.690625 3.598125 1.38125 4.19625 1.0625 4.8125 C-0.10209704 7.08956772 -0.10209704 7.08956772 -1 10 C-1.66 10 -2.32 10 -3 10 C-2.01 6.7 -1.02 3.4 0 0 Z " fill="#4F4B8C" transform="translate(370,361)"/>
<path d="M0 0 C0 3 0 3 -1.3125 4.38671875 C-2.875 5.59114583 -4.4375 6.79557292 -6 8 C-6.33 7.01 -6.66 6.02 -7 5 C-4.69 3.35 -2.38 1.7 0 0 Z " fill="#E89A4C" transform="translate(471,319)"/>
<path d="M0 0 C0.625 1.8125 0.625 1.8125 1 4 C0.01 5.485 0.01 5.485 -1 7 C-1.99 6.67 -2.98 6.34 -4 6 C-1.125 1.125 -1.125 1.125 0 0 Z " fill="#2B275F" transform="translate(668,740)"/>
<path d="M0 0 C-1.10789408 3.32368224 -1.48436217 3.61563093 -4.375 5.25 C-5.28378906 5.78367187 -5.28378906 5.78367187 -6.2109375 6.328125 C-8 7 -8 7 -11 6 C-9.54550599 4.9944239 -8.08627557 3.99569565 -6.625 3 C-5.40683594 2.1646875 -5.40683594 2.1646875 -4.1640625 1.3125 C-2 0 -2 0 0 0 Z " fill="#544A86" transform="translate(406,383)"/>
<path d="M0 0 C0.33 0 0.66 0 1 0 C1.125 6.75 1.125 6.75 0 9 C-0.99 9 -1.98 9 -3 9 C-2.01 6.03 -1.02 3.06 0 0 Z " fill="#2F295E" transform="translate(573,728)"/>
<path d="M0 0 C3.82097239 0.53069061 6.06171403 1.49701566 9 4 C6.03 3.67 3.06 3.34 0 3 C0 2.01 0 1.02 0 0 Z " fill="#454479" transform="translate(499,462)"/>
</svg>
